<?xml version="1.0" encoding="utf-8"?>
<!-- Generator: Adobe Illustrator 16.0.0, SVG Export Plug-In . SVG Version: 6.00 Build 0)  -->
<!DOCTYPE svg PUBLIC "-//W3C//DTD SVG 1.1 Basic//EN" "http://www.w3.org/Graphics/SVG/1.1/DTD/svg11-basic.dtd">
<svg version="1.1" baseProfile="basic" id="Layer_1"
	 xmlns="http://www.w3.org/2000/svg" xmlns:xlink="http://www.w3.org/1999/xlink" x="0px" y="0px" width="867.5px" height="563.5px"
	 viewBox="0 0 867.5 563.5" xml:space="preserve">
<g>
	<path fill-rule="evenodd" clip-rule="evenodd" fill="#080808" d="M607.494,146.574c-1.079-1.2-2.059-2.515-3.265-3.568
		c-1.139-0.995-1.588-2.015-1.474-3.543c0.116-1.56-0.165-3.148-0.3-5.133c0.111-0.058,0.647-0.458,1.247-0.627
		c2.335-0.657,4.688-1.247,7.037-1.852c1.427-0.366,2.78-0.641,4.126,0.466c0.716,0.59,1.752,0.852,2.663,0.007
		c0.921-0.854,1.042-1.913,0.574-2.932c-0.603-1.315-1.406-2.54-2.15-3.788c-1.094-1.836-1.125-2.375,0.371-3.809
		c2.665-2.555,5.38-5.062,8.161-7.487c0.689-0.602,1.681-0.966,2.594-1.183c1.791-0.425,3.63-0.645,5.44-0.997
		c2.975-0.579,3.292-0.96,3.403-4.047c0.031-0.871-0.05-1.746-0.062-2.62c-0.013-0.861-0.004-1.724-0.004-2.634
		c0.979-0.425,1.85-0.802,2.652-1.15c0.342-0.955,0.647-1.81,1.177-3.291c0.827,2.401,1.444,4.194,2.141,6.216
		c-0.676,0.818-1.513,0.422-2.394-0.081c-0.809-0.463-1.65-0.867-2.912-1.523c0.456,1.799,3.194,1.955,1.461,3.755
		c1.43,0.131,2.81-0.13,3.447,0.439c0.506,0.452,0.102,1.922,0.102,2.943c3.738-0.588,3.738-0.588,3.088-4.87
		c2.561-1.04,5.317,0.571,8.262-0.418c-0.529-1.556-1.012-2.986-1.504-4.414c-0.791-2.299-0.591-2.705,1.188-4.245
		c3.224-2.793,6.951-2.457,10.762-2.076c1.014,1.606,0.015,2.837-0.863,4.394c1.387,0.891,2.644,1.698,4.244,2.726
		c-0.071,0.978-0.167,2.281-0.296,4.033c0.816-0.418,1.405-0.601,1.845-0.963c2.835-2.339,7.187-1.945,9.538,0.902
		c0.123,0.15,0.202,0.359,0.355,0.458c3.201,2.049,3.561,5.196,3.57,8.622c0.009,2.735-0.672,4.977-3.05,6.494
		c-6.448,4.115-10.757,10.229-15.164,16.244c-0.431,0.588-0.634,1.342-1.252,2.697c1.118-0.643,1.664-0.908,2.159-1.249
		c1.36-0.937,2.679-1.934,4.05-2.853c2.39-1.602,5.154-2.864,5.327-6.337c0.012-0.255,0.291-0.494,0.436-0.746
		c0.146-0.254,0.281-0.514,0.625-1.147c0.816,1.45-0.192,4.119,2.53,3.07c1.062-1.697-0.331-4.211,2.123-5.781
		c0.804,0.501,1.747,1.09,2.791,1.741c-0.173,0.654-0.351,1.183-0.446,1.727c-0.31,1.747,0.187,2.554,1.863,2.99
		c1.124,0.292,2.254,0.656,3.401,0.747c2.865,0.228,5.394,0.952,7.646,2.978c1.854,1.668,8.228,2.275,10.811,1.438
		c-0.551-1.367-1.102-2.734-1.858-4.617c1.338,0,2.431-0.337,3.063,0.061c2.364,1.487,4.983,1.467,7.584,1.712
		c3.376,0.316,5.43,2.885,4.661,6.203c-0.244,1.051-1.442,1.881-2.46,3.125c0.47,0.666,0.895,1.702,1.665,2.261
		c1.217,0.883,1.603,2.065,2.068,3.363c0.551,1.531,1.244,3.067,2.185,4.379c0.458,0.638,1.654,1.088,2.452,1.004
		c0.448-0.047,0.978-1.32,1.097-2.098c0.234-1.528,0.183-3.1,0.307-4.647c0.027-0.353,0.286-0.687,0.555-1.289
		c0.686,0.622,1.296,1.065,1.769,1.625c2.003,2.367,2.895,2.604,5.694,1.388c0.267-0.115,0.523-0.251,1.022-0.491
		c0.671,0.497,1.477,1.013,2.187,1.637c2.009,1.768,4.251,1.272,5.069-1.289c0.307-0.965,0.296-2.107,0.145-3.127
		c-0.578-3.887-0.426-3.97,2.875-6.033c2.619-1.637,5.164-1.388,7.802-0.452c2.038,0.724,2.242,1.458,1.208,3.512
		c-0.128,0.256-0.255,0.513-0.434,0.873c0.48,0.791,1.02,1.595,1.47,2.445c0.397,0.75,0.695,1.552,1.236,2.788
		c0.982-0.892,1.811-1.479,2.421-2.239c0.787-0.979,1.387-2.106,2.089-3.156c0.766-1.146,1.749-1.518,2.958-0.679
		c1.957,1.357,4.368,2.226,5.101,4.906c0.134,0.489,0.73,0.886,1.175,1.249c0.976,0.798,2.11,1.437,2.957,2.348
		c0.767,0.826,1.236,1.929,1.939,3.077c0.767-0.196,1.549-0.265,2.205-0.589c2.056-1.014,4.077-0.859,6.219-0.264
		c2.594,0.722,5.242,1.26,7.884,1.797c1.034,0.21,1.578,0.721,1.546,1.747c-0.021,0.673-0.034,1.41-0.305,2.001
		c-0.777,1.697-0.756,3.094,0.802,4.409c0.476,0.401,0.595,1.355,0.66,2.076c0.073,0.811-0.099,1.644-0.18,2.671
		c1.615-0.698,2.079-1.875,2.284-3.126c0.626-3.831,3.631-4.413,6.286-3.732c4.31,1.104,4.309,1.106,8.092-0.27
		c0.837,1.243,1.735,2.576,2.631,3.911c0.427,0.636,0.737,1.403,1.296,1.883c0.806,0.69,1.81,1.303,2.899,0.545
		c0.918-0.64,1.021-2.637,0.284-3.669c-2.024-2.833-1.62-3.888,1.818-4.434c0.818-0.131,1.72,0.061,2.55,0.248
		c1.227,0.276,2.407,0.886,3.639,0.992c3.735,0.32,6.84,1.921,9.728,4.191c5.34,4.198,10.767,8.284,16.077,12.518
		c0.645,0.514,0.969,1.615,1.134,2.501c0.228,1.216,0.162,2.486,0.231,3.944c1.826-0.835,0.365-2.531,1.387-3.45
		c1.813-0.801,3.268,0.19,4.653,1.231c1.338,1.005,2.694,1.881,4.433,1.927c0,0.583,0,1.167,0,1.75
		c-1.025,1.129-1.901,2.469-3.118,3.327c-1.199,0.847-1.723,1.742-1.584,3.129c0.02,0.192,0.008,0.389,0.003,0.583
		c-0.086,3.049-1.65,3.961-4.275,2.314c-1.028-0.646-1.857-1.689-2.609-2.679c-1.825-2.402-3.731-4.418-7.328-2.287
		c-0.73-2.176-1.353-4.031-2.074-6.181c-1.186,0.691-2.056,1.2-3.101,1.811c0.665,1.027,1.172,1.813,1.907,2.952
		c-1.255,1.695-2.599,3.511-3.724,5.031c-2.071,0.481-2.997-3.081-5.148-0.636c2.965,3.568,7.594,6.432,4.93,12.414
		c-1.145-0.826-2.178-1.572-3.429-2.475c-5.634,5.413-13.152,8.185-17.894,14.539c-0.085-0.014-0.32,0.02-0.393-0.073
		c-2.776-3.561-4.014-3.648-7.033-0.384c-0.657,0.71-1.141,1.58-1.705,2.376c-0.152-0.184-0.305-0.367-0.457-0.551
		c-1.277-0.261-2.545-0.647-3.835-0.749c-1.505-0.118-2.47,0.646-3.034,2.143c-0.596,1.58-0.841,3.468-3.196,4.333
		c1.201,1.171,2.196,2.141,3.379,3.293c-1.169,1.483-1.569,3.173-0.192,5.021c0.813,1.093,0.271,2.177-0.92,2.551
		c-2.285,0.719-2.934,2.191-2.692,4.435c0.071,0.664-0.356,1.531-0.821,2.08c-4.321,5.097-8.701,10.146-12.946,15.071
		c-0.564-2.148-0.354-2.083,0.449-4.177c0.404-1.057,0.371-2.523-0.022-3.6c-1.564-4.276-1.855-8.705-1.944-13.171
		c-0.033-1.719,0.691-3.165,1.823-4.479c2.979-3.459,5.823-7.037,8.859-10.445c1.345-1.512,3.017-2.733,4.551-4.073
		c1.172-1.022,2.349-2.039,3.545-3.031c1.596-1.322,2.485-2.909,2.25-5.068c-0.173-1.588,0.165-3.061,1.237-4.364
		c0.36-0.438,0.338-1.191,0.473-1.729c-1.224-0.805-1.891-0.093-2.451,0.522c-1.569,1.721-3.09,3.488-4.579,5.279
		c-1.17,1.405-2.264,2.873-3.45,4.39c-2.662-1.708-2.091-4.559-2.782-6.781c-5.461,0.476-12.437,9.33-11.91,15.606
		c-3.774,1.288-7.473,1.927-10.819-1.135c-0.824-0.753-1.735-1.025-2.655-0.511c-2.422,1.354-4.723,0.673-6.988-0.297
		c-2.748-1.178-4.861-0.945-6.977,1.257c-4.034,4.198-7.971,8.49-11.932,12.757c-1.32,1.422-2.594,2.888-4.028,4.49
		c0.273,0.793,0.578,1.679,0.964,2.797c0.688-0.582,1.208-1.022,1.993-1.687c0.593,1.347,1.079,2.451,1.657,3.766
		c0.503-0.163,1.027-0.318,1.541-0.501c3.002-1.064,5.572,0.616,5.848,3.808c0.486,5.612-0.707,10.963-2.436,16.246
		c-0.727,2.22-1.387,4.428-2.996,6.244c-0.762,0.859-1.311,1.932-1.836,2.968c-2.128,4.193-5.438,7.276-9.158,10.015
		c-1.104,0.812-2.09,1.042-3.479,0.684c-3.771-0.974-5.632,0.36-5.697,4.28c-0.04,2.368-0.957,3.618-3.138,4.174
		c-0.464,0.117-0.9,0.36-1.334,0.578c-1.217,0.612-1.745,1.489-1.106,2.844c0.704,1.493,1.284,3.051,2.088,4.487
		c0.685,1.225,0.8,2.285,0.067,3.529c-0.427,0.727-0.716,1.608-0.803,2.447c-0.358,3.442-0.438,3.602-4.005,5.066
		c-0.383-1.834-0.705-3.636-1.148-5.407c-0.278-1.112-0.59-2.262-1.141-3.251c-2.054-3.684-2.094-3.662-2.375-7.286
		c-2.99-0.638-5.473,1.364-8.408,1.905c-0.464-2.261,2.146-3.008,2.108-5.167c-4.542,0.706-6.993,4.853-11.757,5.905
		c1.057,0.634,1.419,1.013,1.823,1.064c1.479,0.188,2.567,0.904,3.771,1.782c0.659,0.48,2.376-0.694,3.638-0.773
		c1.233-0.076,2.636,0.136,3.045,1.679c0.369,1.391-0.229,2.412-1.455,3.151c-1.49,0.899-2.936,1.873-4.38,2.803
		c-0.048,0.366-0.192,0.688-0.105,0.923c1.081,2.892,2.144,5.793,3.341,8.637c0.273,0.646,1.075,1.056,1.573,1.626
		c0.412,0.473,1.112,1.095,1.031,1.527c-0.37,1.965-0.368,4.059-1.77,5.737c-1.804,2.16-3.241,4.504-4.474,7.092
		c-1.789,3.755-5.06,6.387-8.736,8.295c-3.178,1.649-6.43,3.178-10.134,3.438c-1.422,0.101-2.806,0.721-4.208,1.104l0.022,0.002
		c-0.36,0.063-0.841,0.306-1.064,0.158c-2.313-1.523-3.925-0.57-5.489,1.285c-1.603,1.903-3.384,3.656-5.402,5.813
		c6.041,3.182,8.902,8.491,11.965,13.447c-3.667,5.048-8.109,8.719-14.37,11.007c1.123-2.552,0.034-3.922-1.536-5.114
		c-0.539-0.408-1.056-0.876-1.481-1.399c-2.071-2.541-4.593-3.801-7.944-2.848c-1.146,3.094-1.146,3.094,2.427,5.453
		c-0.402,0.538-0.785,1.082-1.201,1.599c-0.421,0.523-0.874,1.02-1.469,1.707c1.319,2.878,3.171,5.264,5.874,6.963
		c0.822,0.517,1.685,0.971,2.494,1.506c1.034,0.684,1.615,1.615,1.583,2.924c-0.047,1.929-0.013,3.859-0.013,5.956
		c-1.038-0.219-2.088-0.439-3.349-0.705c-0.107,1.906,0.835,2.977,1.87,3.976c1.606,1.553,3.29,3.027,4.858,4.616
		c0.88,0.893,1.758,1.343,3.073,1.226c2.588-0.23,5.124,1.688,6.196,4.58c-2.791,0.197-4.849-3.227-7.836-1.648
		c0.311,2.946,3.222,6.097,6.349,6.176c7.49,0.188,14.512,2.52,21.68,4.219c5.246,1.243,10.483,1.969,15.807,0.194
		c1.311-0.437,2.857-0.114,4.271-0.312c1.223-0.171,2.469-0.444,3.604-0.915c3.493-1.447,7.148-0.835,10.984-1.397
		c-0.494,1.659-1.314,2.35-2.542,2.593c-0.379,0.075-0.793,0.154-1.158,0.079c-4.212-0.87-7.796,0.652-11.23,2.849
		c-0.73,0.466-1.591,0.725-2.355,1.144c-1.865,1.024-3.499,1.046-5.3-0.402c-1.792-1.44-3.825-1.735-6.281-1
		c-2.032,0.607-4.449,0.41-6.601,0.031c-5.164-0.91-10.29-1.864-15.547-2.276c-4.642-0.363-9.135-1.84-13.203-4.265
		c-0.816-0.486-1.561-1.159-2.197-1.871c-3.693-4.126-7.344-8.291-11.011-12.44c-0.634-0.717-1.282-1.422-2.196-2.437
		c-0.223,2.485,1.688,3.682,2.302,6.104c-1.536-1.205-2.644-2.048-3.724-2.925c-1.618-1.315-2.586-2.692-1.59-5.016
		c0.892-2.078,0.344-2.909-1.844-3.209c-1.684-0.23-2.541-0.885-2.323-2.587c0.257-2.015-0.938-3.434-2.178-4.931
		c2.803-0.32,6.147,0.77,8.194,2.485c2.295,1.925,4.62,3.813,7.035,5.804c0.646-1.406-0.252-2.054-0.711-2.841
		c-2.249-3.853-4.551-7.675-6.692-11.586c-0.477-0.871-0.695-2.128-0.476-3.079c0.354-1.536,0.98-2.867-0.487-4.236
		c-0.316-0.296-0.082-1.619,0.318-2.156c0.844-1.133,0.715-2.24,0.198-3.288c-1.046-2.12-1.252-4.226-0.441-6.451
		c0.119-0.326,0.017-0.733,0.017-1.438c-1.803,0.725-2.729,2.113-3.925,3.146c-0.839,0.725-1.553,2.076-2.893,1.398
		c-1.375-0.696-1.318-2.266-0.869-3.381c1.258-3.121,0.38-5.094-2.645-6.421c-1.402-0.615-2.117-1.822-2.197-3.488
		c-0.063-1.319-0.546-2.618-0.857-3.99c-2.607,0-5.008-0.124-7.385,0.065c-0.862,0.068-1.796,0.744-2.475,1.38
		c-4.82,4.512-9.584,9.086-14.367,13.639c-0.56,0.533-1.039,1.31-1.706,1.542c-1.932,0.672-2.191,2.038-2.35,3.851
		c-0.277,3.178-0.879,6.331-1.441,9.478c-0.495,2.763-2.719,3.78-5.248,4.924c-0.612-1.061-1.313-1.977-1.706-3.009
		c-1.275-3.357-2.482-6.741-3.627-10.146c-0.599-1.782-1.307-3.359-2.931-4.539c-0.743-0.539-1.262-1.718-1.415-2.681
		c-0.594-3.725-1.605-7.426-1.037-11.266c0.052-0.351-0.108-0.732-0.183-1.174c-0.955,0-1.84-0.145-2.657,0.027
		c-2.593,0.542-4.074-0.739-5.535-2.698c-1.548-2.075-3.459-3.896-5.326-5.711c-2.113-2.054-4.717-2.573-7.562-1.955
		c-4.067,0.884-8.121,0.347-12.185-0.058c-1.358-0.135-2.336-0.696-3.176-1.773c-0.877-1.124-1.944-2.101-3.062-3.281
		c-2.249,2.282-4.094,1.218-6.042-0.186c-3.23-2.329-6.564-4.514-9.844-6.773c-0.954-0.656-1.854-1.436-3.499-0.691
		c0.254,0.781,0.38,1.614,0.772,2.292c0.973,1.68,2.084,3.278,3.109,4.929c0.955,1.538,2.001,2.903,4.534,2.438
		c0,1.251-0.017,2.258,0.003,3.265c0.04,2.011,0.775,2.334,2.702,2.044c3.175-0.478,5.59-1.993,7.118-4.532
		c1.751,0.167,2.524,0.979,2.645,2.267c0.139,1.491,1.042,2.054,2.276,2.647c1.894,0.911,3.64,2.129,5.654,3.341
		c-0.866,2.433-1.632,4.583-2.372,6.664c-1.295,0.118-2.231,0.204-3.38,0.31c0.327,0.969,0.596,1.763,0.959,2.838
		c-1.985,1.357-3.933,2.949-6.105,4.124c-5.719,3.092-11.482,6.115-17.344,8.925c-2.146,1.028-4.582,1.581-6.948,1.985
		c-2.516,0.429-2.751,0.128-3.788-2.115c-0.285-0.617-0.56-1.24-0.807-1.874c-1.392-3.562-3.113-6.879-6.276-9.264
		c-0.836-0.63-1.441-1.57-2.133-2.385c-1.051-1.234-1.619-2.604-1.361-4.287c0.376-2.444-0.512-4.368-2.005-6.402
		c-3.153-4.297-6.022-8.829-7.423-14.095c-0.213-0.8-0.585-1.558-1.376-2.331c-0.221,1.061-0.44,2.122-0.761,3.661
		c-1.001-0.826-1.828-1.509-2.907-2.398c0.095,0.533,0.071,0.867,0.209,1.108c3.573,6.251,6.074,12.971,8.613,19.674
		c0.446,1.179,0.86,2.373,1.239,3.576c1.001,3.185,2.627,5.765,5.97,7.01c1.472,0.549,2.865,1.421,2.241,3.489
		c-0.097,0.32,0.074,0.782,0.247,1.113c1.251,2.396,2.531,4.778,3.807,7.162c1.532,2.865,2.306,3.201,5.61,2.622
		c3.444-0.603,6.895-1.172,10.349-1.713c2.702-0.424,3.817-0.311,5.884,0.531c-1.63,4.726-2.924,9.608-5.586,13.922
		c-0.893,1.445-2.318,2.614-3.653,3.726c-5.995,4.989-11.33,10.636-16.647,16.317c-2.229,2.381-3.356,4.916-2.688,8.17
		c0.154,0.752,0.341,1.627,0.108,2.307c-0.94,2.748-0.173,5.067,1.343,7.367c0.985,1.495,1.254,3.226,0.923,5.04
		c-0.505,2.77-0.947,5.55-1.408,8.327c-0.302,1.824-1.246,3.091-2.803,4.186c-2.851,2.006-5.583,4.2-8.217,6.486
		c-2.128,1.847-1.978,1.924-0.485,4.289c0.421,0.667,0.694,1.643,0.565,2.396c-0.324,1.906-0.742,3.838-1.471,5.616
		c-0.395,0.963-1.386,1.824-2.314,2.39c-1.276,0.779-1.992,1.621-2.083,3.199c-0.064,1.102-0.549,2.253-1.104,3.237
		c-1.667,2.961-3.449,5.856-5.206,8.768c-2.922,4.845-6.965,7.862-12.777,8.593c-3.727,0.468-7.374,1.586-11.047,2.461
		c-3.42,0.813-7.043-1.781-6.892-5.315c0.109-2.582-0.648-4.715-1.832-6.894c-1.622-2.984-3.102-6.05-4.549-9.124
		c-1.471-3.126-2.289-6.409-1.71-9.896c0.254-1.524,0.045-2.881-0.932-4.116c-0.357-0.451-0.768-0.97-0.855-1.507
		c-0.477-2.924-1.978-5.217-4.135-7.158c-0.882-0.793-1.01-1.827-0.798-2.945c0.507-2.671,0.889-5.373,1.557-8.003
		c0.264-1.039,1.004-2.069,1.784-2.847c2.956-2.949,3.061-3.169,1.205-6.731c-0.728-1.397-1.436-2.747-1.005-4.42
		c0.107-0.417-0.074-0.953-0.242-1.389c-0.801-2.068-1.689-4.104-2.457-6.184c-0.697-1.89-1.726-3.469-3.524-4.47
		c-0.424-0.236-0.825-0.515-1.237-0.771c-3.689-2.305-3.656-2.313-2.43-6.516c0.733-2.512,1.398-5.052,1.901-7.617
		c0.137-0.696-0.197-1.811-0.72-2.246c-1.324-1.104-2.782-2.149-4.758-1.51c-1.696,0.549-2.969-0.149-4.057-1.495
		c-1.295-1.603-2.755-2.803-5.038-3.096c-2.507-0.321-4.642,0.135-6.56,1.622c-2.37,1.838-4.906,2.601-7.894,1.905
		c-2.135-0.497-4.197,0.057-6.302,0.59c-7.216,1.83-5.987,2.207-12.301-2.125c-1.441-0.988-2.783-2.119-4.185-3.166
		c-2.689-2.01-4.898-4.392-6.228-7.544c-1.037-2.461-2.578-4.457-5.026-5.819c-2.027-1.128-2.041-1.683-1.47-4.141
		c0.877-3.773,1.76-7.546,2.631-11.321c0.607-2.634,0.23-5.214-0.453-7.774c-0.42-1.575-0.335-3.018,0.734-4.402
		c0.825-1.067,1.455-2.298,2.089-3.5c2.267-4.296,5.325-7.866,9.429-10.51c1.252-0.806,1.952-1.825,2.414-3.382
		c1.16-3.909,2.835-7.526,6.316-10.199c2.086-1.602,3.519-4.055,5.425-6.341c2.071,1.333,4.764,0.998,7.433,0.841
		c2.361-0.139,4.495-0.807,6.563-2.091c1.506-0.936,3.372-1.486,5.147-1.763c4.892-0.764,9.813-1.36,14.736-1.889
		c2.652-0.284,3.073-0.029,5.85,1.942c-1.718,1.581-1.335,3.323-0.376,5.19c0.568,1.105,0.762,2.398,1.18,3.588
		c0.771,2.191,1.583,2.97,3.839,2.782c2.517-0.208,4.312,0.69,6.322,2.141c2.059,1.484,4.72,2.167,7.166,3.067
		c1.57,0.579,2.833-0.086,3.769-1.433c0.776-1.117,1.555-2.233,2.376-3.316c0.896-1.182,1.99-1.473,3.299-0.62
		c0.568,0.37,1.204,0.644,1.757,1.035c4.021,2.849,8.56,3.502,13.33,3.169c0.565-0.04,1.286-0.023,1.655-0.35
		c1.619-1.429,2.97-0.781,4.442,0.256c2.432,1.713,4.549,1.486,6.659-0.713c0.404-0.421,0.642-1.209,0.607-1.809
		c-0.155-2.726,0.665-5.173,1.894-7.534c0.18-0.344,0.433-0.689,0.479-1.057c0.139-1.097,0.668-2.552,0.172-3.231
		c-0.851-1.167-2.138-0.091-3.092,0.447c-1.437,0.811-2.689,0.844-4.034-0.181c-1.083-0.823-2.25-0.719-3.575-0.309
		c-3.312,1.027-6.69,1.836-9.956,2.71c-1.836-1.682-2.724-3.279-1.442-5.532c0.333-0.587,0.425-1.655,0.109-2.206
		c-1.222-2.139-0.405-3.915,0.645-5.736c0.28-0.486,0.466-1.029,0.832-1.856c-2.748,0.434-5.104,0.786-5.303,4.318
		c-1.578-0.922-2.921-1.706-4.868-2.844c0.125,1.849,0.028,3.086,0.327,4.218c0.507,1.918-0.232,3.149-1.706,4.229
		c-2.021-0.917-3.39-2.217-4.002-4.385c-0.604-2.142-1.328-4.285-2.313-6.273c-0.703-1.421-1.873-2.63-2.934-3.847
		c-0.43-0.491-1.111-0.773-1.697-1.115c-3.968-2.315-7.808-4.767-10.101-8.973c-0.172-0.314-0.53-0.527-0.794-0.779
		c-2.287,1.935-2.156,2.032-0.87,4.201c1.752,2.955,4.257,4.964,7.11,6.707c1.82,1.112,3.489,2.472,5.286,3.626
		c1.462,0.939,1.922,2.104,1.15,3.859c-1-0.438-2.008-0.878-3.582-1.566c0.606,1.41,1.004,2.333,1.471,3.416
		c-1.35,1.918-2.939,3.644-5.458,4.246c-0.246,0.703-0.494,1.409-0.771,2.201c-2.327-0.161-4.096-1.269-6.266-2.619
		c2.423-1.155,4.471-1.86,6.678-0.727c0.24-0.209,0.453-0.304,0.513-0.458c1.521-3.929,1.518-3.93-2.057-6.42
		c-0.319-0.223-0.634-0.453-0.963-0.658c-4.003-2.489-7.553-5.443-10.024-9.552c-0.492-0.816-1.197-1.504-1.831-2.284
		c-1.816,0.382-2.993,1.564-4.155,2.694c-1.855,1.806-3.759,2.718-6.139,0.921c-0.374-0.282-0.87-0.446-1.336-0.559
		c-1.676-0.401-2.877,0.75-2.541,2.463c0.106,0.543,0.421,1.045,0.685,1.671c-1.747,1.467-3.345,3.007-5.14,4.263
		c-1.798,1.257-2.854,2.732-3.08,4.975c-0.354,3.538-3.243,6.103-6.707,6.505c-2.067,0.24-4.096,0.814-6.188,1.808
		c-0.603-0.443-1.167-0.956-1.817-1.314c-1.155-0.635-2.309-1.412-3.562-1.701c-2.007-0.464-3.229-1.465-3.871-3.446
		c-0.86-2.654-1.45-5.206,0.035-7.861c0.837-1.495,0.837-3.12,0.261-4.793c-1.01-2.937,0.314-4.44,3.54-4.253
		c3.558,0.207,7.118,0.418,10.68,0.461c1.274,0.016,3.055,0.687,3.745-0.774c0.758-1.605,1.336-3.538,1.201-5.266
		c-0.187-2.38-1.055-4.622-3.309-6.191c-1.951-1.358-3.562-3.207-5.376-4.89c2.345-2.146,4.237,0.382,6.434,0.011
		c-0.104-0.889-0.209-1.79-0.349-2.986c0.982-0.114,1.804-0.24,2.631-0.3c2.734-0.197,5.016-1.01,6.566-3.581
		c1.037-1.719,2.699-3.048,3.879-4.697c1.229-1.719,2.291-3.57,3.282-5.439c0.979-1.848,1.655-3.867,3.425-5.645
		c0.063,1.28,0.107,2.201,0.166,3.385c2.998-1.639,3.51-4.258,3.808-6.988c0.021-0.19-0.017-0.388-0.035-0.581
		c-0.544-5.607,0.344-6.646,5.155-9.733c1.47,1.454,1.441,4.012,3.424,5.083c0.984-0.317,1.322-0.856,1.051-1.803
		c-0.799-2.785-1.557-5.583-2.349-8.37c-0.075-0.266-0.282-0.494-0.637-1.092c-0.781,0.57-1.542,1.048-2.212,1.63
		c-1.022,0.889-1.884,1.994-2.99,2.749c-2.029,1.385-3.823,1.068-5.314-0.839c-1.194-1.528-2.301-3.131-3.374-4.749
		c-0.588-0.886-1.054-1.801-0.459-2.987c0.237-0.475-0.021-1.269-0.204-1.871c-0.526-1.735-0.563-3.435,0.131-5.128
		c2.602-6.354,6.438-11.697,12.431-15.305c0.466-0.28,0.807-0.794,1.149-1.243c0.232-0.303,0.281-0.877,0.557-0.996
		c2.658-1.151,2.147-3.541,2.392-5.703c0.291-2.578,1.662-4.685,3.258-6.68c1.33-1.662,2.56-3.409,3.764-5.166
		c0.573-0.836,0.916-1.773-0.387-2.597c-1.505,0.955-3.865,0.983-3.786,3.872c-1.639-0.73-1.773-1.749-1.049-2.877
		c0.462-0.719,1.238-1.226,1.799-1.891c0.802-0.952,1.646-1.896,2.275-2.96c1.311-2.216,2.853-3.854,5.465-4.812
		c1.84-0.674,3.686-2.362,4.674-4.087c1.354-2.365,2.99-3.166,5.422-2.609c1.005,0.23,1.636,0.012,2.32-0.665
		c3.231-3.191,7.253-3.717,11.532-3.354c1.057,0.089,2.125,0.167,3.182,0.115c2.818-0.14,6.084,1.305,8.211,3.819
		c-0.688,0.743-1.492,1.444-2.065,2.299c-0.31,0.46-0.504,1.393-0.247,1.734c0.302,0.4,1.306,0.717,1.734,0.51
		c4.377-2.119,7.824,0.762,11.275,2.36c3.95,1.829,7.386,4.628,9.736,8.531c0.512,0.849,1.612,1.351,2.458,1.99
		c1.63,1.234,1.895,2.074,1.35,4.012c-0.667,2.368-2.154,4.106-4.129,5.463c-1.34,0.922-2.745,1.258-4.397,0.657
		c-2.733-0.994-5.521-1.84-8.301-2.699c-0.794-0.245-1.639-0.323-2.73-0.528c0.439,3.037,2.66,3.328,4.699,3.864
		c0,0.468,0.155,0.965-0.025,1.176c-1.343,1.569-0.688,3.245-0.437,4.947c0.274,1.861,1.459,2.811,2.958,3.689
		c0.854,0.501,1.468,1.412,2.485,2.436c0.574-0.978,1.068-1.819,1.553-2.644c-1.44-1.044-2.853-1.776-3.808-2.899
		c-0.391-0.459,0.209-1.761,0.408-2.988c2.929,1.228,5.229,2.618,6.509,5.301c2.484-2.088,2.54-2.611,0.486-5.949
		c1.479-1.363,3.146-2.677,4.532-4.239c1.378-1.554,2.474-3.357,3.856-5.278c1.179,1.984-0.085,4.551,2.263,5.617
		c2.175-2.188,1.999-3.543-1-6.787c0.462-1.432,1.281-2.865,1.29-4.305c0.011-1.479-0.77-2.962-1.261-4.635
		c2.636-0.371,4.786,0.678,6.617,2.257c1.626,1.402,1.409,2.726-0.351,4.075c-0.609,0.467-1.283,0.849-2.11,1.389
		c0.308,0.42,0.535,0.8,0.829,1.121c2.026,2.216,4.082,2.078,5.423-0.691c0.86-1.777,2.144-2.88,3.611-4.021
		c1.836-1.428,3.52-3.059,5.23-4.642c1.518-1.403,3.246-2.063,5.406-1.761c0.813,2.257,0.284,4.036-2.611,5.243
		c3.912,1.38,3.978-2.143,5.95-2.859c-0.393-0.722-0.694-1.278-1.001-1.842c0.634-1.021,1.42-1.512,2.406-0.707
		c1.824,1.486,3.885,1.57,6.187,1.232c0.407-0.646,0.858-1.362,1.474-2.34c0.737,1.827,1.416,3.492,3.714,3.3
		c0.441-1.679,0.124-3.241-0.925-4.606c-1.003-1.309-2.091-2.558-3.21-3.77c-1.466-1.59-1.495-1.563,0.084-3.637
		c0.264,0.248,0.6,0.438,0.749,0.725c0.988,1.9,2.572,2.8,4.663,3.033c1.151,0.128,2.275,0.488,3.42,0.695
		c2.552,0.461,4.521,1.831,5.791,4.029c0.781,1.353,1.873,2.168,3.198,2.823c1.998,0.987,3.979,2.006,5.969,3.012
		c1.056-2.151,0.558-3.862-1.369-5.259c-0.701-0.508-1.234-1.242-1.904-1.801c-1.353-1.13-1.944-2.487-2.025-4.298
		c-0.075-1.692-0.681-3.361-1.185-5.639c0.665-0.772,1.679-2.048,2.797-3.223c1.24-1.305,2.091-2.717,2.352-4.56
		c0.298-2.109,0.797-4.198,1.334-6.264c0.208-0.803,0.607-1.666,1.182-2.24c1.186-1.186,2.547-2.194,3.986-3.4
		c1.08,1.077,2.389,2.194,1.543,4.393c0.769,0.222,1.467,0.423,2.276,0.656c0.716,2.595,0.394,5.18-0.49,7.663
		c-0.644,1.807-0.793,3.444-0.218,5.338c0.696,2.296,1.068,4.65,0.366,7.16c-0.524,1.873,0.11,3.842,1.389,5.575
		c-0.869,1.376-0.806,2.766-0.295,4.362c1.058,3.306,0.335,6.552-1.192,9.559c-0.364,0.716-1.433,1.292-2.282,1.501
		c-1.873,0.459-3.813,0.644-6.04,0.988c0.379,0.513,0.632,1.115,1.084,1.422c2.043,1.381,5.373,1.042,7.229-0.646
		c0.431-0.392,0.835-1.015,1.326-1.101c2.348-0.411,2.627-2.073,2.953-4.02c0.218-1.306,1.13-2.496,1.964-4.217
		c-0.629-0.888-1.547-2.185-2.656-3.75c1.541-0.602,2.854-1.114,4.168-1.628c0.016-0.171,0.031-0.343,0.047-0.515
		c-1.413-0.357-2.827-0.715-4.457-1.126c-0.329-2.105-0.822-4.291-0.939-6.496c-0.047-0.887,0.734-1.817,1.268-3.02
		c-3.183-3.843-2.085-7.807,0.535-11.786c0.611-0.929,0.758-2.168,1.102-3.271c0.369-1.182,0.719-2.37,1.185-3.914
		c1.171,2.191,1.865,3.992,1.212,6.16c-0.405,1.348-0.478,2.796-0.749,4.508c2.357-0.729,1.775-2.515,2.112-3.725
		c0.411-1.474,1.049-2.666,2.515-3.796c3.126,2.024,6.289,4.062,9.439,6.119c1.128,0.737,2.19,1.684,3.649,0.745
		c-0.297,1.895-0.598,3.786-0.888,5.68c-0.234,1.531,0.224,2.896,1.207,4.03c0.319,0.367,1.073,0.691,1.468,0.559
		c0.364-0.122,0.755-0.901,0.72-1.359c-0.211-2.744,0.205-5.684-2.179-7.848C607.586,147.418,607.598,146.934,607.494,146.574z"/>
	<path fill-rule="evenodd" clip-rule="evenodd" fill="#080808" d="M2.284,247.941c3.438,0.307,5.442-2.467,8.128-3.775
		c0.676-0.33,1.342-0.749,2.061-0.901c0.979-0.208,1.943-0.254,2.174-1.518c0.042-0.231,0.33-0.492,0.568-0.604
		c5.482-2.576,9.825-6.847,14.894-10.041c1.03-0.649,1.787-1.749,2.623-2.684c0.659-0.736,1.075-1.447,0.663-2.62
		c-0.253-0.721,0.295-1.724,0.521-2.775c-1.896,0.517-3.616,2.866-5.642,0.704c-0.314,0.103-0.505,0.148-0.682,0.226
		c-3.891,1.707-5.229,0.777-4.961-3.422c0.055-0.861,0.008-1.728,0.008-2.58c-0.219-0.078-0.426-0.234-0.562-0.187
		c-3.296,1.157-3.208,1.073-5.726-1.411c-2.172-2.142-3.703-4.469-3.59-7.628c0.017-0.483-0.11-1.248,0.135-1.406
		c2.373-1.525,1.975-4.958,4.659-6.484c0.638,0.21,1.427,0.471,2.453,0.81c0.302-3.021,3.069-3.062,5.193-4.191
		c-0.727-1.434-1.363-2.69-1.947-3.844c-1.286,0.609-2.536,1.721-3.721,1.653c-2.277-0.128-4.523-0.899-6.767-1.469
		c-0.318-0.081-0.746-0.501-0.78-0.804c-0.263-2.296-2.266-3.233-3.774-4.73c1.763-0.809,3.474-1.381,4.947-2.324
		c1.527-0.979,2.825-2.315,4.247-3.516c1.714,1.11,3.302,2.14,4.896,3.173c1.631-2.763,0.78-4.983-1.805-5.709
		c-0.67-0.188-1.501-0.654-1.785-1.229c-1.498-3.022-4.077-4.871-6.772-6.635c-0.315-0.207-0.567-0.51-0.868-0.786
		c-0.002-2.146,1.204-3.426,3.08-3.664c3.331-0.424,4.742-2.662,5.848-5.376c0.765-1.879,1.988-3.26,3.97-4.008
		c0.968-0.365,1.866-1.05,2.641-1.76c1.205-1.106,2.168-2.238,4.195-1.867c0.879,0.161,2.033-0.962,3.009-1.587
		c3.646-2.333,6.203-1.418,7.397,2.676c0.052,0.178,0.18,0.334,0.343,0.627c0.383-0.651,0.634-1.344,1.103-1.823
		c1.482-1.521,3.001-1.257,3.916,0.634c0.373,0.771,0.655,1.586,1.107,2.697c2.118-2.504,4.127-1.169,5.974-0.004
		c1.878,1.185,3.668,1.734,5.604,0.391c0.546,0.375,1.025,0.575,1.322,0.93c1.173,1.4,2.339,1.57,4.024,0.656
		c2.371-1.286,2.759-1.048,4.697,0.967c0.372,0.387,0.899,0.672,1.407,0.866c0.536,0.204,1.132,0.307,1.708,0.343
		c4.117,0.261,7.33,2.188,10.096,5.157c0.86,0.925,2.163,1.438,3.338,2.185c1.36-1.938-0.053-3.504,0.155-5.061
		c2.311-1.445,3.527-1.01,3.858,1.733c0.211,1.743,0.875,2.675,2.718,3.022c1.873-2.798,3.795-5.67,5.866-8.765
		c0.988,0.4,1.841,0.802,2.729,1.094c1.795,0.589,3.155-0.615,2.643-2.426c-0.319-1.131-1.038-2.19,0.783-3.011
		c2.133,1.988,2.691,4.991,4.535,7.801c1.083-1.745,2.01-3.236,3.216-5.18c0.816,2.063,1.495,3.775,2.288,5.777
		c0.719-0.514,1.405-0.767,1.697-1.255c0.986-1.649,2.288-1.62,3.742-0.867c2.582,1.337,5.187,2.645,7.682,4.134
		c1.235,0.737,2.324,1.119,3.807,0.844c1.061-0.197,2.396-0.06,3.333,0.442c2.514,1.345,2.624,3.328,0.48,5.222
		c-0.285,0.251-0.687,0.37-0.835,0.446c0.186,0.619,0.202,0.933,0.299,0.96c3.307,0.916,6.684,1.321,9.973,0.196
		c1.313-0.449,2.333-0.376,3.19,0.454c1.1,1.062,2.069,2.283,2.942,3.543c0.758,1.092,1.305,2.331,1.98,3.572
		c2.621-2.68,2.803-3.407,1.063-6.153c-0.837-1.319-0.77-2.303,0.28-3.348c0.274-0.272,0.499-0.597,0.731-0.908
		c1.69-2.262,2.395-2.638,4.359-0.818c3.371,3.122,7.397,3.559,11.601,3.785c0.959,0.053,1.913,0.206,2.936,0.319
		c0.134-1.033-0.043-2.226,0.465-2.914c0.573-0.779,1.76-1.107,2.986-1.806c-0.818-0.446-1.431-0.777-2.04-1.112
		c-0.761-0.419-1.594-0.747-2.266-1.279c-1.963-1.551-1.881-2.688,0.123-4.092c1.565-1.096,3.08-2.264,4.651-3.425
		c3.978,2.076,4.178,6.975,0.099,9.777c1.496,1.395,2.188,2.929,1.285,5.058c-0.563,1.325,0.466,2.104,3.149,2.697
		c-0.367-1.087-0.689-2.04-1.003-2.968c0.1-0.211,0.135-0.478,0.27-0.545c4.14-2.088,4.088-6.006,4.18-9.788
		c0.019-0.729-0.54-1.637-1.104-2.179c-1.116-1.07-2.399-1.976-3.658-2.888c-1.11-0.804-1.507-1.743-0.79-2.988
		c0.715-1.242,0.494-2.33-0.244-3.529c-0.723-1.172-0.519-2.267,0.555-3.382c2.26-2.347,3.546-4.965,2.15-8.424
		c-0.504-1.249-0.095-2.868-0.097-4.317c-0.003-1.678-0.001-3.355-0.232-5.072c0.955-2.046,3.143-2.942,5.103-3.099
		c2.665-0.212,5.494-0.786,8.524,0.208c-0.446,0.857-0.593,1.631-1.049,1.932c-2.641,1.737-3.183,4.484-3.743,7.264
		c-0.182,0.896-0.506,1.762-0.781,2.698c-1.458-0.726-2.545-1.534-3.744-1.773c-0.91-0.182-1.965,0.362-3.446,0.691
		c1.61,1.24,2.79,2.149,4.224,3.253c-0.739,0.921-1.267,1.701-1.915,2.36c-1.684,1.71-1.82,3.61-0.655,5.581
		c0.885,1.498,1.848,2.983,2.988,4.289c1.221,1.398,1.582,2.706,0.869,4.496c-0.874,2.191-0.666,2.44,1.363,3.255
		c3.745,1.503,3.821,1.587,3.173,5.848c-0.209,1.374-0.354,2.555,1.675,2.777c1.145-1.833,0.643-4.063,1.203-6.214
		c0.828,0.269,1.587,0.422,2.261,0.75c1.839,0.896,2.178,1.702,1.688,3.771c-0.111,0.47-0.272,0.931-0.45,1.38
		c-1.154,2.925-0.667,4.353,2.446,6.412c0.771-1.665,1.995-3.244,2.161-4.928c0.229-2.34,1.17-3.765,3.606-4.662
		c-2.234-1.896-1.602-4.248-1.418-6.537c-3.465-2.278-6.821-4.485-10.586-6.961c2.078-0.592,3.61-1.028,5.144-1.465
		c0.013-0.181,0.025-0.361,0.039-0.541c-1.21-0.349-2.406-0.756-3.633-1.031c-1.64-0.368-2.353-1.379-2.741-2.982
		c-1.356-5.602,0.856-10.292,3.596-14.868c0.234-0.391,0.664-0.752,1.086-0.928c2.509-1.039,5.089-1.712,8.075-1.371
		c-1.205,3.271-3.564,5.5-5.479,8.217c0.481,1.3,1.345,2.634,0.405,4.213c-0.236,0.397,0.277,1.27,0.499,1.905
		c0.543,1.559,1.251,3.073,1.64,4.668c0.397,1.625,1.398,2.456,2.935,3.063c0.932-1.901,0.946-3.766,0.44-5.684
		c-0.147-0.556-0.539-1.36-0.311-1.652c1.787-2.279-0.049-3.724-1.092-5.366c-0.154-0.243-0.25-0.523-0.461-0.977
		c1.979-3.234,4.984-5.455,8.495-7.912c0.804,2.66,1.778,4.976,2.152,7.385c0.353,2.28,0.075,4.659,0.075,7.533
		c0.855-1.349,1.5-2.364,2.235-3.524c0.862,0.956,1.71,1.896,2.996,3.322c0.557-1.787,0.8-3.088,1.362-4.231
		c0.572-1.163,1.46-2.171,2.377-3.486c-3.342-0.523-5.646-2.486-8.431-4.819c2.865-0.885,5.226-0.757,7.531-0.255
		c1.496,0.326,2.588,2.615,2.276,4.256c-0.106,0.559-0.334,1.094-0.519,1.681c0.61,0.709,1.131,1.414,1.753,2.015
		c1.458,1.408,2.292,2.908,2.079,5.118c-0.252,2.612,2.024,3.432,4.186,4.727c0.736-1.564,1.396-2.969,2.147-4.564
		c1.907,1.078,2.23,2.91,3.084,4.575c-1.213,0.767-2.229,1.408-3.304,2.088c0.97,1.739,2.281,1.99,3.83,1.82
		c1.942-0.213,3.634,0.354,5.211,1.972c-0.575,0.402-1.114,0.706-1.561,1.11c-0.462,0.42-0.835,0.938-1.355,1.538
		c1.525,0.751,2.438-0.081,3.417-0.612c1.325-0.718,2.555-0.749,3.858,0.717c-0.678,0.501-1.227,0.956-1.823,1.337
		c-2.12,1.356-2.604,2.961-1.322,5.135c0.529,0.899,1.283,1.728,2.099,2.384c4.157,3.345,8.367,6.622,12.56,9.923
		c0.533,0.419,1.111,0.791,1.596,1.26c0.832,0.804,0.976,1.863,0.071,2.55c-2.216,1.685-2.461,4.026-2.596,6.499
		c-0.051,0.935-0.36,1.855-0.595,2.996c-2.308-0.811-3.89-2.403-4.137-4.291c-0.34-2.603-1.902-3.65-3.817-4.673
		c-0.745-0.398-1.5-0.781-2.448-1.273c-0.118,0.615-0.295,0.983-0.235,1.308c0.789,4.252,1.867,8.329,5.572,11.178
		c1.506,1.157,2.746,2.66,4.354,4.249c-1.363,0.925-2.377,1.612-3.524,2.392c0.43,1.276,0.875,2.598,1.447,4.298
		c-2.625-0.553-3.873-2.372-5.479-3.606c-1.675-1.285-3.247-2.703-5.063-3.871c1.224,3.093,3.874,5.067,5.967,7.853
		c-2.511,0.568-4.623-0.291-6.757-0.912c-0.734-0.214-1.475-0.722-2.18-0.667c-2.123,0.162-3.218-1.018-4.066-2.683
		c-0.744-1.463-1.538-2.728-3.112-3.66c-1.296-0.768-2.102-2.424-3.011-3.764c-1.135-1.672-1.798-1.583-3.742-0.728
		c-1.15,0.507-2.203,1.232-3.325,1.812c-0.84,0.434-1.72,0.789-3.041,1.388c0.148-1.071,0.138-1.697,0.33-2.253
		c0.507-1.46,1.178-2.865,1.645-4.336c0.72-2.27,1.368-2.725,3.843-2.438c1.252,0.146,2.506,0.289,3.762,0.383
		c0.36,0.026,0.734-0.126,1.104-0.197c-0.268-1.219-0.683-2.333-0.725-3.462c-0.092-2.433,1.183-3.445,3.516-2.747
		c0.972,0.29,1.856,1.003,2.664,1.665c0.812,0.667,1.478,1.512,2.446,2.53c0.936-1.119,1.762-2.108,2.963-3.546
		c-1.688-0.501-2.909-0.927-4.161-1.214c-0.846-0.193-1.736-0.188-2.606-0.28c-1.446-0.154-2.127-0.922-2.464-2.393
		c-0.401-1.756-0.948-3.578-1.882-5.095c-2.903-4.713-5.986-9.317-9.087-13.906c-0.49-0.724-1.677-1.748-2.112-1.572
		c-0.833,0.337-1.425,1.393-1.981,2.239c-0.295,0.449-0.306,1.086-0.449,1.656c-1.702,0.372-2.51-0.59-2.884-1.852
		c-0.457-1.538-1.455-1.71-2.701-1.341c-2.202,0.652-4.378,1.396-7.193,2.304c2.316,1.524,4.076,2.679,5.832,3.837
		c2.114,1.395,2.477,1.905,1.646,4.324c-0.889,2.586-0.926,5.103-0.469,7.729c0.289,1.659,0.229,3.223-1.241,4.529
		c-0.56,0.498-0.805,1.584-0.825,2.411c-0.052,2.094-0.906,3.515-2.875,4.259c-0.265,0.101-0.497,0.289-1.125,0.663
		c3.805,3.185,8.638,4.923,10.025,10.201c-3.13,0.176-5.289-1.447-7.544-3.041c-1.841,1.65-1.347,4.761-4.023,6.114
		c-0.714-2.242-2.475-3-5.115-2.839c0.718-2.446,1.318-4.493,1.976-6.73c-1.621,0.043-1.947,1.098-2.328,1.877
		c-0.646,1.321-1.632,2.084-2.964,2.605c-2.133,0.833-3.966,1.966-4.331,4.571c-0.082,0.586-0.721,1.121-1.167,1.623
		c-1.812,2.031-3.575,4.112-5.491,6.042c-4.279,4.312-4.733,9.646-3.922,15.168c0.43,2.919,1.232,5.885,3.358,8.132
		c0.333-0.051,0.653-0.027,0.687-0.114c1.125-2.922,3.676-5.013,4.619-8.056c0.748-2.414,1.898-3.092,4.39-2.729
		c3.092,0.449,5.686,1.526,7.229,4.646c1.546,3.124,3.51,6.046,5.353,9.018c0.71,1.146,1.691,1.945,2.935,2.67
		c1.39,0.81,2.309,2.427,3.498,3.768c-1.14,1.505-2.23,2.715-0.794,4.332c0.248,0.279-0.36,1.319-0.543,1.913
		c1.198,1.463,2.354,2.886,3.526,4.295c0.31,0.371,0.631,0.756,1.02,1.031c1.46,1.037,2.583,0.577,2.879-1.262
		c0.168-1.043,0.169-2.138,0.071-3.193c-0.187-2.015-0.361-4.048-0.801-6.016c-0.363-1.625,0.371-2.409,1.455-3.42
		c1.473-1.374,2.82-2.972,3.87-4.689c2.158-3.529,1.838-6.429-0.767-9.655c-0.793-0.982-1.724-1.857-2.479-2.865
		c-1.114-1.489-1.099-2.083,0.482-3.018s1.609-2.123,0.939-3.441c-0.625-1.229-0.616-2.241-0.123-3.556
		c0.418-1.11,0.229-2.48,0.176-3.729c-0.156-3.609,1.25-4.732,4.76-3.675c0.73,0.22,1.411,0.601,2.082,0.893
		c0.563-0.588,1.087-1.548,1.527-1.511c0.998,0.084,2.161,0.434,2.88,1.089c0.978,0.892,1.858,2.073,2.316,3.303
		c0.65,1.75,1.863,2.586,3.45,3.245c3.83,1.591,4.397,2.186,3.873,6.285c-0.461,3.619,1.461,5.35,4.298,7.011
		c3.577-2.418,4.77-6.454,6.93-10.337c0.71,0.941,1.403,1.604,1.788,2.413c1.791,3.77,3.504,7.577,5.223,11.381
		c0.153,0.339,0.261,0.774,0.189,1.124c-0.213,1.035-0.641,2.007,0.266,2.989c1.802,1.952,2.332,5.005,5.245,6.013
		c0.635,0.219,1.231,0.574,1.812,0.924c1.261,0.76,1.823,1.738,0.668,3.147c2.34-0.351,5.782,1.308,6.354,3.103
		c0.216,0.674,0.155,1.609-0.155,2.24c-0.617,1.255-0.646,2.379,0.012,3.581c0.855,1.564,0.423,2.908-0.563,4.309
		c-1.526,2.167-1.319,2.617,1.023,4.001c1.918,1.133,3.847,2.269,5.644,3.576c1.658,1.206,2.119,2.991,1.555,4.951
		c-0.63,2.189-1.898,2.643-3.904,1.489c-0.313-0.18-0.623-0.364-0.916-0.536c-3.042,3.736-3.674,3.778-6.148,0.341
		c0.742-0.388,1.461-0.765,2.634-1.378c-2.901-0.648-5.291-1.183-7.886-1.762c0.485-4.469,3.368-8.01,3.812-12.208
		c-0.178-0.14-0.355-0.279-0.533-0.419c-1.178,0.903-2.553,1.64-3.494,2.744c-2.143,2.514-4.556,3.471-7.694,2.115
		c-0.131-0.057-0.342,0.075-0.726,0.172c1.016,1.195,1.971,2.32,3.086,3.633c-1.849,0.523-3.029-0.199-3.689-1.199
		c-1.888-2.857-4.38-2.288-6.956-1.532c-0.698,0.205-1.338,0.608-2.477,1.143c2.654,1.352,5.127,0.846,7.527,1.367
		c0,1.472,0,2.882,0,4.458c-2.273-0.014-2.543,1.483-2.537,2.95c2.396,0.845,4.591,1.618,7.074,2.493
		c0.962-1.159,2.007-2.418,3.224-3.886c1.593,1.687,2.122,3.371,2.604,5.243c-0.479,0.323-0.911,0.695-1.407,0.938
		c-4.18,2.038-8.552,3.728-12.121,6.857c-0.399,0.35-1.029,0.437-1.625,0.675c-1.62-2.269-0.8-4.071,1.012-5.821
		c-4.554,0.762-11.267,5.857-12.472,10.087c0.782,0.413,1.595,0.842,2.959,1.562c-1.597,0.544-2.727,0.865-3.803,1.314
		c-1.07,0.446-2.038,1.19-3.137,1.502c-2.244,0.638-3.645,1.993-4.508,4.138c-0.687,1.703-1.55,3.35-2.482,4.934
		c-1.125,1.91-1.478,3.763-0.095,5.663c-0.781,1.746-2.493,2.188-3.783,3.151c-2.946,2.2-5.934,4.362-8.712,6.762
		c-1.789,1.543-1.999,6.137-0.524,8.468c1.468,2.32,1.958,4.849,1.972,7.489c0.007,1.218-0.369,2.437-0.653,4.144
		c-1.1-0.575-2.01-0.78-2.485-1.35c-1.554-1.861-2.985-3.789-3.139-6.415c-0.121-2.077-1.854-3.732-3.923-4.023
		c-1.055-0.148-2.153-0.016-3.193-0.214c-0.912-0.174-1.881-0.474-2.63-0.997c-2.395-1.672-3.948-1.622-5.927,0.453
		c-1.462,1.534-3.142,1.636-5.071,1.044c-1.549-0.475-3.161-0.758-4.758-1.052c-3.678-0.675-5.961,2.182-8.775,3.634
		c-0.555,0.286-0.912,1.505-0.874,2.27c0.065,1.324,0.512,2.63,0.866,4.256c-2.241,1.863-1.945,4.635-1.771,7.37
		c0.087,1.357,0.207,2.714,0.341,4.067c0.357,3.599,2.277,5.999,5.752,6.843c1.681,0.408,3.455,0.43,5.188,0.62
		c1.587,0.174,2.616-0.598,3.173-2.005c0.571-1.441,1.144-2.895,1.539-4.39c0.289-1.094,0.886-1.769,1.932-1.893
		c2.107-0.249,4.228-0.469,6.348-0.521c1.394-0.035,1.917,0.922,1.452,2.18c-1.003,2.716-2.111,5.393-3.416,8.689
		c0.558,1.926,2.188,3.657,4.729,4.597c2.53,0.938,5.046,1.917,7.827,2.977c-0.345,2.377-0.645,4.565-0.982,6.749
		c-0.434,2.804-0.225,3.257,2.371,4.547c1.217,0.604,2.438,1.223,3.713,1.683c0.581,0.21,1.619,0.333,1.895,0.015
		c1.547-1.789,3.064-0.591,4.488-0.034c3.517,1.374,4.478,1.132,6.084-2.34c1.052-2.271,2.411-3.653,5.136-3.328
		c0.763,0.091,1.664-0.394,2.397-0.802c0.912-0.508,1.715-1.211,2.698-1.927c0.53,0.868,1.021,1.67,1.704,2.787
		c0.729-1.704,1.966-1.949,3.461-1.787c1.64,0.178,3.308,0.096,4.944,0.288c0.71,0.083,1.717,0.388,1.993,0.908
		c0.893,1.684,2.202,1.459,3.455,0.896c1.096-0.492,2.09-0.704,2.964,0.125c2.187,2.075,4.368,1.644,6.621,0.188
		c0.239-0.154,0.533-0.227,0.807-0.322c0.079-0.027,0.175-0.004,0.351-0.004c0.693,1.741-0.613,2.858-1.595,4.462
		c1.249,1.147,2.488,2.325,3.773,3.45c0.804,0.703,1.649,1.365,2.522,1.979c1.862,1.307,2.543,2.952,2.166,5.278
		c-0.474,2.922,0.921,6.552,2.991,8.544c0.671-0.781,1.337-1.558,2.182-2.54c1.302,0.648,2.568,1.28,4.139,2.063
		c1.146-2.125,2.254-4.183,3.652-6.779c0.737,1.236,1.267,1.893,1.548,2.642c0.646,1.723,1.094,3.506,2.661,4.739
		c0.848,0.667,0.659,1.563-0.014,2.306c-0.584,0.644-1.264,1.203-1.848,1.849c-0.616,0.681-1.167,1.419-1.85,2.258
		c3.005,1.271,4.711-2.41,7.608-1.254c-0.527,1.452-1.021,2.816-1.516,4.181c0.185,0.124,0.37,0.249,0.556,0.374
		c1.719-1.749,3.437-3.497,5.229-5.321c2.547,0.815,4.763,1.823,4.922,4.917c1.822-0.481,1.795-0.428,3.498,0.412
		c0.753,0.371,1.628,0.603,2.465,0.667c1.255,0.097,2.533,0.076,3.786-0.046c2.322-0.227,4.016,0.702,5.716,2.258
		c1.608,1.472,3.604,2.57,5.545,3.62c3.722,2.016,4.375,7.306,1.267,10.165c-1.899,1.748-4.198,3.095-5.411,5.592
		c-0.409,0.843-1.604,1.304-2.631,2.085c-0.101,2.137-0.162,4.465-0.332,6.785c-0.234,3.189-0.463,6.386-0.89,9.552
		c-0.112,0.831-0.798,1.754-1.486,2.299c-1.067,0.847-1.618,1.785-1.874,3.123c-0.226,1.178-0.775,2.336-1.385,3.385
		c-0.705,1.216-1.947,0.883-3.128,0.87c-0.932-0.01-1.881,0.419-2.802,0.717c-0.736,0.238-1.445,0.83-2.161,0.819
		c-3.17-0.043-5.025,2.085-7.175,3.896c-1.091,0.92-1.637,1.837-1.645,3.178c-0.007,1.069-0.009,2.139-0.018,3.207
		c-0.017,1.883-0.099,3.701-2.145,4.707c-0.459,0.227-0.839,0.842-1.023,1.36c-1.598,4.489-5.323,7.591-7.574,11.67
		c-1.063,1.926-3.257,2.658-5.414,3.101c-1.402,0.287-2.791,0.637-4.632,1.062c0.854,1.467,1.509,2.594,2.221,3.817
		c-0.511,0.962-1.261,1.931-1.559,3.024c-0.698,2.553-2.608,3.157-4.845,3.416c-1.641,0.189-3.274,0.447-4.92,0.583
		c-1.264,0.104-2.109,0.661-2.052,1.951c0.165,3.691-1.694,5.262-5.217,5.313c-0.542,0.009-1.078,0.362-1.997,0.693
		c1.162,0.823,2.134,1.407,2.98,2.137c1.389,1.196,1.218,2.33-0.381,3.145c-3.291,1.674-3.291,1.674-3.104,5.925
		c-1.338,0.547-2.811,1.147-4.504,1.839c-0.922,1.339-0.618,2.676,0.807,3.842c0.376,0.308,0.762,0.609,1.099,0.957
		c2.005,2.064,1.991,4.295-0.291,5.933c-1.545,1.107-2.552,2.136-2.227,4.247c0.109,0.705-0.77,1.683-1.396,2.349
		c-0.78,0.831-1.767,1.47-2.787,2.291c0.5,0.757,0.859,1.431,1.339,2.004c1.481,1.767,1.684,3.882,1.365,5.974
		c-0.168,1.113,0.024,1.865,0.691,2.637c1.822,2.107,3.812,3.871,6.836,3.95c0.996,0.025,1.984,0.357,3.568,0.664
		c-1.254,1.099-2.132,1.121-2.855,0.767c-1.845-0.901-2.907-0.021-3.887,1.394c-0.931,1.344-1.938,2.635-3.06,4.146
		c-2.121-3.04-5.53-3.122-8.507-4.097c-1.168-0.383-2.198-0.538-2.45-2.02c-0.103-0.604-0.693-1.129-1.074-1.682
		c-2.313-3.355-4.632-6.708-6.945-10.064c-0.165-0.238-0.444-0.496-0.438-0.741c0.05-2.44,0.111-4.882,0.254-7.318
		c0.054-0.924,0.604-1.888,0.442-2.741c-0.388-2.065-0.575-3.994,0.726-5.849c0.277-0.396,0.116-1.1,0.168-1.798
		c-1.825,0.296-1.438,1.988-2.17,2.852c-1.299-1.915-1.357-2.438-0.004-3.936c1.012-1.12,2.087-2.12,1.159-3.793
		c-0.042-0.077-0.064-0.234-0.02-0.28c1.7-1.743,0.707-3.504,0.161-5.333c-0.135-0.456,0.366-1.315,0.82-1.692
		c1.43-1.187,1.786-2.698,1.732-4.428c-0.036-1.166,0.026-2.335-0.027-3.499c-0.092-1.991,0.097-3.877,1.568-5.137
		c-0.304-2.227-0.692-4.234-0.797-6.257c-0.04-0.783,0.492-1.637,0.888-2.394c1.582-3.03,3.19-6.141,3.272-9.569
		c0.085-3.521-0.041-6.972,1.486-10.285c0.484-1.052-0.07-2.06-1.222-2.62c-0.401-0.196-0.699-0.606-1.385-1.229
		c1.179-0.358,2.016-0.614,2.962-0.902c0.482-3.303,0.681-6.732,1.536-9.989c1.168-4.446-0.13-8.899,0.548-13.307
		c0.212-1.376-0.59-2.231-1.656-2.811c-2.047-1.11-4.132-2.153-6.223-3.181c-2.729-1.341-5.206-2.934-7.082-5.443
		c-1.498-2.005-2.5-4.188-2.999-6.57c-0.968-4.625-3.21-8.468-6.489-11.832c-2.679-2.749-2.739-3.997-0.433-7.097
		c0.853-1.146,1.126-2.188,0.742-3.491c-0.96-3.251-0.343-6.063,2.085-8.551c1.76-1.805,3.234-3.884,4.938-5.749
		c1.683-1.842,2.186-3.604,0.998-6.055c-0.775-1.601-1.508-2.613-3.258-3.201c-1.432-0.48-2.406-0.641-3.695,0.354
		c-2.118,1.637-3.615,1.577-5.845,0.006c-2.301-1.622-4.719-3.16-6.705-5.12c-1.686-1.665-2.922-3.822-4.185-5.868
		c-1.004-1.625-1.447-3.896-4.193-2.553c-1.979-1.016-4.104-1.823-5.892-3.104c-1.725-1.236-3.114-2.833-5.405-3.222
		c-0.798-0.136-1.444-1.164-2.417-2.007c-1.349,1.08-2.682,2.149-4.118,3.301c-0.563-0.195-1.271-0.298-1.813-0.652
		c-4.031-2.63-8.589-4.053-13.02-5.771c-3.262-1.266-5.798-3.455-8.022-6.234c0.286-0.658,0.492-1.297,0.824-1.861
		c0.712-1.211,0.324-2.088-0.503-3.13c-2.548-3.212-5.364-6.107-8.642-8.591c-1.05-0.796-1.754-2.05-2.611-3.098
		c-0.185-0.226-0.329-0.489-0.531-0.694c-2.78-2.814-5.201-5.848-6.289-9.764c-0.14-0.501-0.677-0.892-1.008-1.306
		c-2.358,0.975-2.457,1.047-1.612,2.823c0.577,1.216,1.368,2.342,2.151,3.445c2.351,3.311,5.213,6.245,6.915,10.038
		c0.614,1.366,1.978,2.379,2.886,3.635c0.996,1.375,0.786,1.801-1.226,2.677c-0.376-2.316-2.002-3.196-4.099-3.699
		c-0.694-0.167-1.726-1.039-1.735-1.604c-0.066-3.629-2.245-5.373-5.281-6.512c-0.246-0.093-0.425-0.365-0.776-0.682
		c0.235-0.487,0.55-0.958,0.699-1.477c0.456-1.584,0.111-2.668-1.424-3.304c-1.891-0.783-2.619-2.179-2.825-4.037
		c-0.313-2.826-1.878-5.107-3.48-7.277c-0.676-0.915-1.998-1.608-3.147-1.867c-3.365-0.757-5.33-2.875-6.76-5.849
		c-2.104-4.374-4.304-8.705-6.586-12.989c-1.611-3.022-2.042-6.011-0.607-9.21c0.514-1.146,0.836-2.382,1.213-3.586
		c1.116-3.572,0.938-7.094-0.463-10.556c-0.401-0.991-0.88-1.954-1.223-2.963c-0.816-2.406-2.272-4.278-4.483-5.528
		c-1.925-1.089-2.811-2.453-1.969-4.784c0.538-1.493,0.081-3.001-0.833-4.418c-1.417-2.194-2.701-4.483-3.904-6.804
		c-0.656-1.265-1.61-1.984-2.934-2.078c-1.787-0.126-3.074-1.076-4.32-2.192c-2.245-2.011-4.423-4.104-6.773-5.983
		c-1.672-1.335-2.398-2.986-2.544-5.01c-0.063-0.873-0.09-1.748-0.151-2.62c-0.102-1.437-0.857-2.479-2.26-2.656
		c-2.26-0.286-3.879-1.663-5.654-2.84c-1.618-1.071-3.294-2.065-5.006-2.979c-0.746-0.397-1.819-0.928-2.443-0.67
		c-2.077,0.86-3.631-0.181-5.161-1.125c-1.701-1.05-3.24-2.361-5.267-3.868c-0.224,1.983-0.411,3.65-0.629,5.588
		c-1.87-0.689-3.015-0.158-4.187,0.931c-1.267,1.177-2.833,2.038-4.296,2.995c-1.682,1.1-2.679,2.365-2.11,4.604
		c0.296,1.164,0.04,2.508-0.155,3.74c-0.096,0.601-0.498,1.306-0.983,1.663c-1.469,1.082-3.046,2.018-4.609,3.028
		c-0.233-1.45-0.233-1.45,0.541-3.012c-0.572-0.665-1.182-1.373-2.069-2.405c0.887-0.504,1.547-1,2.289-1.274
		c1.691-0.625,2.755-1.791,3.238-3.483c0.655-2.297,2.121-4.236,2.39-6.784c0.159-1.514,0.848-3.607,3.162-4.071
		c1.147-0.23,0.987-1.214,0.397-2.307c-2.455,1.293-4.769,2.834-5.617,5.48c-1.579,4.923-4.74,8.902-7.478,13.096
		c-1.608,2.464-4.069,4.43-6.366,6.358c-0.851,0.714-2.33,0.681-3.854,1.074c1.182,1.352,2.215,2.532,3.438,3.933
		c-2.922,0.595-4.374-1.896-6.645-2.471c-0.396,0.525-0.798,0.93-1.041,1.413c-0.606,1.203-1.65,1.82-2.852,1.521
		c-1.633-0.407-2.614,0.282-3.506,1.421c-0.972,1.24-2.101,1.97-3.777,1.453c-1.242-0.383-2.032,0.135-2.413,1.401
		c-0.439,1.463-1.6,2.341-3.002,2.402c-1.765,0.078-2.821,1.038-3.878,2.514c-0.694-0.75-1.256-1.357-1.818-1.965
		C2.284,248.33,2.284,248.136,2.284,247.941z"/>
	<path fill-rule="evenodd" clip-rule="evenodd" fill="#080808" d="M329.518,2.37c2.476,1.809,5.448,1.825,8.291,2.213
		c3.189,0.435,5.834,1.924,8.489,3.728c-1.525,2.442-3.39,3.812-6.267,3.421c-1.054-0.143-2.186,0.112-3.194-0.15
		c-2.374-0.619-4.341,0.173-6.35,1.289c-2.198,1.223-4.504,2.252-6.749,3.392c-0.551,0.28-1.051,0.661-1.464,1.252
		c3.092-0.347,6.135-0.912,8.81-2.438c2.473-1.41,4.906-1.778,7.505-0.757c2.435,0.957,4.516,0.751,6.331-1.293
		c0.486-0.547,1.249-0.849,2.047-1.367c1.398,2.557,0.716,4.943-0.152,7.766c1.181-0.772,1.943-1.271,2.805-1.835
		c2.16,0.549,4.064,1.676,5.643,3.294c2.029,2.081,1.818,4.292-0.663,5.792c-2.653,1.604-5.359,3.182-8.209,4.368
		c-1.292,0.538-3.03,0.333-4.494,0.068c-5.021-0.909-12.533,2.888-14.508,7.509c0.965,0.846,1.887,0.126,2.664-0.245
		c2.275-1.086,4.638-2.107,6.659-3.576c2.728-1.981,5.681-1.776,8.67-1.532c1.601,0.13,2.581,2.125,1.799,3.55
		c-0.55,1.002-1.367,1.877-2.159,2.721c-0.65,0.694-1.44,1.258-2.489,2.153c3.648-0.368,5.88-2.179,6.754-5.096
		c0.928-3.098,3.208-4.388,6.012-5.922c2.275,8.735-0.887,15.891-5.485,22.73c2.546,0.538,3.574,0.148,4.302-1.818
		c0.535-1.446,0.665-3.043,1.195-4.491c0.521-1.423,1.211-2.812,2.023-4.091c1.031-1.626,2.26-3.126,3.51-4.826
		c0.254,0.557,0.492,1.12,0.763,1.668c0.961,1.947,2.657,2.337,4.224,0.839c0.669-0.64,1.082-1.563,1.541-2.396
		c0.229-0.415,0.269-0.93,0.442-1.381c1.632-4.245,4.529-5.033,7.772-1.916c1.592,1.529,2.818,3.442,4.184,5.202
		c0.75,0.967,0.75,1.946-0.059,2.916c-2.363,2.83-4.663,5.716-7.108,8.472c-0.479,0.541-1.523,0.875-2.271,0.82
		c-1.537-0.112-2.816,0.139-4.088,1.077c-1.341,0.989-1.421,0.881-4.724-0.343c-0.832,0.87-1.779,1.861-3.071,3.213
		c2.338,0.323,2.888-1.564,3.719-1.784c2.001,0.194,3.535,0.546,5.036,0.438c1.836-0.132,2.985,0.506,3.743,2.285
		c-0.096,0.252-0.171,0.64-0.37,0.946c-2.825,4.335-2.829,4.333-6.938,1.344c-1.808,1.364-2.506,3.264-2.668,5.615
		c1.446,0.357,2.808,0.956,3.632-1.026c0.104-0.252,0.979-0.185,1.495-0.265c0.118,0.211,0.235,0.421,0.354,0.632
		c-0.784,0.926-1.484,1.944-2.374,2.756c-1.14,1.04-1.514,2.192-1.096,3.65c0.106,0.371,0.124,0.769,0.219,1.145
		c0.561,2.229,0.068,3.989-2.138,5.065c-0.516,0.252-0.936,0.692-1.422,1.013c-1.259,0.829-1.506,1.939-0.971,3.292
		c0.215,0.541,0.418,1.087,0.619,1.634c0.869,2.355,0.853,2.339-1.05,4.088c-1.481,1.363-1.445,3.011-0.751,5.104
		c1.508-0.381,2.94-0.741,4.799-1.21c-0.784,1.587-1.429,2.89-2.059,4.162c1.517,1.506,3.237,0.369,4.913,0.639
		c0,2.507,0,4.972,0,8.242c-1.347-1.345-2.179-2.207-3.045-3.033c-1.304-1.241-1.962-1.344-3.218-0.108
		c-1.023,1.008-1.854,2.232-2.669,3.429c-0.677,0.994-0.352,1.881,0.676,2.435c3.794,2.042,4.483,6.01,6.407,9.771
		c-2.467-0.002-3.803-1.672-5.775-2.249c0.514,3.809,3.997,5.6,5.252,8.853c-2.218,0.988-4.356,1.941-6.549,2.919
		c1.014,2.806,5.144,3.054,4.157,6.629c-1.865,1.115-1.936,1.118-5.055,0.131c-0.375,1.38-0.749,2.755-1.153,4.241
		c-1.863,0.018-3.722-0.571-5.567,0.589c0.554,0.601,0.941,1.139,1.438,1.543c3.292,2.678,5.744,6.046,7.963,9.608
		c1.607,2.582,1.583,3.472-0.408,5.675c-0.819,0.907-1.854,1.62-2.742,2.38c-3.763-1.597-2.849-6.569-6.4-8.1
		c-0.417,1.682-0.417,1.682,0.354,3.629c-0.854,0.477-1.747,0.984-2.649,1.476c-0.799,0.436-1.601,0.926-1.298,1.994
		c0.337,1.194,1.335,1.302,2.356,1.095c2.938-0.595,5.509,0.21,8.168,2.04c-1.915,1.341-3.631,2.589-5.395,3.765
		c-3.719,2.479-7.424,4.982-11.208,7.357c-2.914,1.829-3.254,1.718-5.812-0.568c-0.208-0.187-0.467-0.316-0.714-0.481
		c-0.069,0.22-0.224,0.451-0.162,0.558c1.405,2.404,0.62,4.44-1.047,6.321c-1.546,1.745-3.036,3.551-4.704,5.171
		c-0.967,0.939-2.238,1.565-3.254,2.504c-1.15-0.843-2.305,0.202-3.497,1.344c-1.189,1.138-2.491,2.158-3.679,3.297
		c-1.653,1.585-2.19,3.686-2.134,5.849c0.051,1.883-0.342,3.56-1.712,4.762c-3.767,3.304-4.88,7.804-5.892,12.384
		c-0.472,2.139-0.973,4.271-1.459,6.4c-1.733-0.104-1.976-1.293-2.463-2.157c-1.147-2.037-2.76-2.916-5.091-2.709
		c-0.716,0.063-1.441,0.01-2.367,0.01c2.078-3.076,2.11-3.395-0.022-6.298c-1.379-1.878-2.901-3.65-4.369-5.463
		c-0.734-0.906-1.524-1.769-2.229-2.697c-2.034-2.679-1.802-3.473,1.268-4.601c0.772-0.283,1.53-0.604,2.701-1.069
		c-0.813-0.595-1.209-1.011-1.693-1.219c-3.768-1.616-5.871-4.591-7.012-8.396c-0.334-1.115-0.72-2.219-1.158-3.297
		c-1.531-3.765-0.293-6.896,2.42-9.476c1.697-1.614,3.023-3.225,3.112-5.676c0.027-0.74,0.433-1.481,0.732-2.193
		c1.389-3.299,0.865-4.123-3.129-4.503c0.082,0.574,0.113,1.106,0.242,1.613c0.143,0.558,0.374,1.093,0.595,1.717
		c-0.901,1.354-1.809,2.718-2.892,4.343c-1.834-2.255-3.56-4.215-4.209-7.164c1.465-0.257,2.735-0.479,4.267-0.748
		c-0.76-1.893-2.829-1.491-3.729-2.66c1.375-2.419,2.385-2.684,4.448-1.177c2.299,1.679,2.299,1.679,3.98,1.848
		c0.45-3.519-1.709-6.402-1.927-9.719c-3.221-0.102-5.287,2.037-7.814,2.742c-1.33-2.439-1.29-2.594,1.306-5.443
		c-0.426-2.085-0.426-2.085,1.154-4.362c-1.363-1.585-2.775-3.227-4.03-4.684c-0.385-1.595-0.521-3.215-1.161-4.602
		c-1.68-3.629-3.405-7.188-3.212-11.358c0.035-0.759-0.396-1.829-0.978-2.276c-3.059-2.353-5.682-5.288-9.429-6.747
		c-1.6-0.623-2.881-0.787-4.359,0.128c-2.361,1.462-4.91,2.322-7.756,1.971c-2.179-0.27-4.172-0.951-5.715-2.59
		c-0.46-0.488-1.054-1.043-1.155-1.641c-0.407-2.406-1.574-4.329-3.244-6.046c-0.341-0.35-0.334-1.035-0.537-1.734
		c0.707-0.186,1.232-0.344,1.768-0.458c0.375-0.08,0.789-0.031,1.142-0.162c1.566-0.579,2.557-1.953,3.833-2.847
		c1.03-0.72,2.839-0.326,4.93-0.47c-1.689-1.656-2.912-1.934-4.341-1.066c-0.914,0.554-1.767,1.23-2.729,1.676
		c-0.785,0.363-1.691,0.464-2.72,0.726c0.351-1.389,0.973-2.438,0.74-3.243c-0.415-1.443-1.219-2.827-2.097-4.067
		c-0.657-0.929-1.772-1.519-2.531-2.393c-1.431-1.646-1.427-2.887,0.239-4.263c1.407-1.161,3.084-1.995,4.634-2.986
		c0.727-0.464,1.834-0.811,2.075-1.466c0.651-1.77,1.906-1.888,3.449-1.964c2.41-0.118,4.525-0.922,6.021-3.02
		c0.778-1.09,1.774-2.024,2.746-3.113c-0.801-1.333-1.532-2.551-2.365-3.938c0.707-0.381,1.299-0.646,1.83-1.002
		c0.457-0.306,0.846-0.715,1.448-1.238c-2.139-1.252-3.987-0.712-5.927-0.115c-2.421,0.744-4.004-0.387-4.305-2.838
		c-0.012-0.097-0.049-0.199-0.028-0.289c0.243-1.113,0.387-2.265,0.777-3.325c0.363-0.984,0.902-1.723,2.353-1.382
		c0.469,0.11,1.341-1.24,1.942-1.991c2.235-2.792,4.153-5.871,7.191-7.863c1.346,0.433,2.672,0.858,4.435,1.425
		c-0.234-1.139-0.322-1.766-0.501-2.365c-0.137-0.461-0.683-1.042-0.544-1.308c1.396-2.679-0.892-3.988-2.014-5.735
		c-0.146-0.229-0.158-0.546-0.297-1.065c1.797-0.396,2.817-2.993,4.887-2.081c1.683,0.741,2.969,2.382,4.512,3.693
		c-0.047-1.147-0.938-1.92-1.419-2.86c-0.518-1.013-1.079-2.002-1.812-3.352c4.443-1.566,8.564-3.185,11.662-6.482
		c1.279,1.553,2.287,2.776,3.63,4.407c0.24-1.309,0.366-1.999,0.499-2.721c0.417-0.029,0.735-0.149,0.956-0.051
		c1.308,0.582,2.043,1.793,1.813,3.042c-0.563,3.059,1.945,3.84,3.359,5.683c1.448-1.656,0.736-2.843-0.141-3.877
		c-1.545-1.821-1.922-3.972-2.062-6.234c-0.063-1.015-0.042-1.896,1.079-2.437c1.05-0.507,1.971-0.802,2.708,0.422
		c0.598-0.559,1.079-1.008,1.626-1.518c0.806,1.174,1.544,2.252,2.389,3.483c-0.593,0.559-1.265,1.192-2.011,1.896
		c2.646,2.944,5.191,5.776,7.843,8.726c0.575-0.496,1.266-1.092,2.1-1.811c-3.967-1.853-1.223-4.5-1.002-7.08
		c1.925,0.805,3.438,2.506,5.578,1.812c-3.327-3.569-6.57-7.048-10.21-10.952c3.508-0.964,6.152,0.327,8.873,0.937
		c3.316,0.742,3.766,4.192,5.835,6.184c0.589-1.827-0.547-4.557-2.612-6.487c-1.224-1.143-1.71-1.3-7.412-2.346
		c0.077-1.108,0.157-2.259,0.248-3.554c1.385,0.101,2.416,0.175,3.759,0.272c-0.28-1.066-0.5-1.901-0.836-3.179
		c2.517,1.2,3.295,3.571,5.032,4.945c1.728,1.365,3.256,3.019,6.02,3.566c-0.638-1.097-1.083-1.865-1.646-2.832
		c0.33-0.256,0.707-0.549,1.222-0.948c-0.406-0.593-0.813-1.188-1.389-2.027c1.502-0.272,2.814-0.511,4.596-0.834
		c-1.647-1.753-4.939-2.074-2.91-5.238c0.638,0.207,1.323,0.429,2.03,0.658c0.247-0.479,0.457-0.889,0.688-1.336
		c0.833,0.266,1.639,0.521,2.771,0.883c-0.733-2.411-0.966-4.478,1.848-5.241C324.851,2.37,327.184,2.37,329.518,2.37z"/>
	<path fill-rule="evenodd" clip-rule="evenodd" fill="#080808" d="M703.122,436.019c2.01,0.987,2.77-0.158,3.546-1.536
		c1.221-2.168,2.071-4.61,4.293-6.316c1.99,1.207,3.963,2.403,5.963,3.616c2.767-1.626,4.407-3.822,4.585-7.021
		c0.104-1.867,1.984-3.417,3.809-2.907c2.828,0.79,5.64,1.37,8.595,1.17c1.047-0.071,1.666,0.601,1.637,1.625
		c-0.042,1.439-0.082,2.906-0.385,4.306c-0.532,2.458-0.296,3.736,1.798,4.974c1.628,0.962,3.526,1.453,5.237,2.291
		c0.981,0.48,1.828,1.237,2.896,1.98c1.863-0.759,2.854-1.95,2.779-4.325c-0.097-3.091,0.236-6.207,0.553-9.295
		c0.122-1.191,0.708-2.335,1.149-3.708c2.305,1.591,4.102,3.074,4.449,5.761c0.315,2.446,1.548,4.33,3.712,5.623
		c1.653,0.989,2.298,2.358,1.886,4.421c-0.59,2.955,0.26,5.535,2.751,7.503c2.058,1.624,3.957,3.449,5.997,5.098
		c1.341,1.084,2.285,2.32,2.574,4.063c0.394,2.374,1.478,4.363,3.313,5.996c0.678,0.602,1.301,1.532,1.462,2.403
		c1.127,6.087,0.946,11.945-2.831,17.311c-2.199,3.121-3.681,6.609-3.638,10.589c0.011,0.933-0.388,1.869-0.605,2.838
		c-1.88,0.224-3.763,0.057-5.255,0.741c-1.38,0.634-2.342,2.18-3.614,3.45c-0.447-0.564-0.735-0.922-1.017-1.285
		c-0.914-1.185-2.167-1.255-2.994-0.242c-1.349,1.65-2.767,1.094-4.449,0.899c-3.359-0.389-5.096-2.131-5.983-5.304
		c-0.453-1.621-1.388-3.234-2.49-4.521c-2.855-3.333-2.941-3.26-2.924-7.227c-2.102,2.057-1.772,5.452-4.522,7.193
		c-0.545-0.546-1.148-1-1.563-1.589c-1.563-2.227-3.086-4.482-4.584-6.753c-0.876-1.329-1.945-2.006-3.64-1.811
		c-4.527,0.525-9.124,0.583-13.455,2.283c-0.716,0.28-1.505,0.578-2.247,0.547c-1.473-0.063-2.459,0.574-3.041,1.804
		c-0.555,1.17-1.519,1.407-2.622,1.44c-2.04,0.061-4.081,0.133-6.121,0.115c-1.445-0.013-2.55,0.395-3.554,1.549
		c-1.677,1.928-6.206,2.366-8.312,0.999c-1.666-1.081-2.008-2.416-1.065-4.181c0.32-0.601,0.628-1.209,0.989-1.783
		c0.981-1.56,1.074-3.035-0.139-4.562c-0.468-0.589-0.934-1.388-0.942-2.097c-0.045-3.569-2.036-6.269-4.024-8.869
		c-1.718-2.246-1.965-4.329-0.472-6.65c2.043-3.178,4.106-6.343,6.186-9.497c0.62-0.942,1.523-1.283,2.671-1.491
		c2.764-0.501,5.509-1.165,8.209-1.946c2.127-0.615,3.878-1.706,4.153-4.3C701.933,438.375,702.565,437.413,703.122,436.019z"/>
	<path fill-rule="evenodd" clip-rule="evenodd" fill="#080808" d="M219.992,50.765c1.05-1.344,2.009-2.499,2.888-3.713
		c1.241-1.712,1.2-1.963-0.371-4.176c-1.814,1.443-2.276,3.568-2.675,5.571c-0.767,3.846-3.366,5.913-6.728,7.789
		c-0.202-1.024-0.356-1.809-0.562-2.845c-0.779,0.544-1.416,0.943-2.004,1.405c-3.487,2.742-4.311,2.698-7.379-0.552
		c-1.393,0.535-2.785,1.952-4.47,0.729c-1.159-0.841-1.353-2.008-0.846-3.63c1.008,0.233,1.938,0.368,2.811,0.672
		c0.896,0.313,1.734,0.791,2.88,1.33c0.561-1.188,1.077-2.284,1.561-3.31c1.604-0.251,3.166-0.473,4.711-0.782
		c0.134-0.027,0.149-0.641,0.323-1.479c-1.879,0.456-3.414,0.829-5.317,1.291c0.953-1.175,1.675-2.064,2.396-2.954
		c-0.132-0.111-0.264-0.222-0.395-0.333c-0.328,0.293-0.646,0.596-0.984,0.876c-1.868,1.55-3.688,3.007-6.458,2.538
		c-1.226-0.207-2.584,0.369-4.167,0.639c0.056-2.307-0.389-4.245,1.593-5.775c0.726-0.561,0.933-1.792,1.634-3.255
		c-1.433,0.477-2.289,0.762-3.296,1.098c-1.052-1.736-2.712-1.22-4.228-0.892c-1.083-2.326-0.911-3.219,0.808-4.235
		c0.579-0.342,1.28-0.475,1.864-0.809c1.643-0.938,3.618-1.433,4.528-3.388c0.128-0.275,0.623-0.38,0.945-0.562
		c1.522,2.519,1.522,2.519,4.255,1.747c-0.975-0.978-1.865-1.871-2.877-2.886c0.975-0.911,1.797-1.681,2.707-2.533
		c-0.242-0.667-0.67-1.297-0.631-1.896c0.037-0.558,0.453-1.324,0.92-1.551c0.436-0.211,1.627,0.063,1.682,0.305
		c0.832,3.665,4.134,4.876,6.626,6.896c0.81,0.655,1.464,1.502,2.38,2.461c0.982-1.658,0.591-2.862-0.508-3.966
		c-1.013-1.017-2.051-2.008-3.047-2.979c0.87-1.994,1.806-3.488,3.9-3.833c0.332-0.055,0.67-0.403,0.899-0.698
		c0.853-1.101,1.662-2.234,2.634-3.554c-0.546-0.418-1.264-0.967-2.331-1.782c1.181-0.751,2.175-1.384,3.196-2.034
		c2.059,1.153,3.451,2.639,4.196,4.77c0.808,2.311,2.223,4.038,4.908,4.524c0.466-1.623,0.206-2.958-0.976-4.057
		c-0.852-0.792-1.773-1.511-2.608-2.32c-0.616-0.598-1.298-1.21-1.675-1.955c-0.697-1.375-0.018-2.509,1.543-2.652
		c1.149-0.105,2.316-0.021,3.456-0.021c0.784,1.475,1.459,2.959,2.33,4.319c0.824,1.287,1.854,2.442,2.906,3.8
		c1.416-1.491,1.563-2.757,0.565-4.3c-0.656-1.015-1.033-2.209-1.695-3.679c1.395-0.078,2.316-0.131,3.264-0.184
		c0.683,1.1,1.301,2.098,2.198,3.545c0.597-1.403,0.956-2.248,1.447-3.403c3.703,0.637,7.453,1.282,11.731,2.018
		c-2.319,2.268-5.883,2.758-6.167,6.38c1.77,0.343,2.653-0.672,3.604-1.409c1.688-1.31,3.247-2.792,4.979-4.038
		c2.225-1.601,3.334-1.168,3.698,1.58c0.267,2.008,1.173,3.386,2.704,4.593c0.979,0.771,1.784,1.779,2.587,2.747
		c1.508,1.817,1.637,2.528,0.386,4.398c-1.99,2.977-3.861,6.126-7.618,7.292c-0.442,0.138-1.001,0.405-1.188,0.773
		c-1.11,2.184-2.885,2.134-4.967,1.875c-1.289-0.16-2.655,0.306-4.578,0.573c1.448,0.874,2.392,1.443,3.446,2.079
		c-1.644,1.655-4.227,2.113-5.43,4.832c4.979-1.349,8.584-4.864,13.719-5.748c-0.225,0.908-0.227,1.585-0.542,2.048
		c-0.653,0.957-1.419,1.854-2.234,2.681c-2.797,2.833-5.66,5.603-8.441,8.451c-0.66,0.675-1.37,1.499-1.583,2.37
		c-0.45,1.837-1.697,2.75-3.22,3.5c-0.696,0.344-1.443,0.616-2.073,1.055c-1.664,1.158-1.898,2.398-0.925,4.236
		c0.382,0.722,0.73,1.462,1.232,2.471c-2.549,0.157-3.594-2.047-5.449-2.385c-0.086,0.229-0.24,0.425-0.197,0.558
		c0.34,1.068,1.287,2.376,0.955,3.127c-0.548,1.24-1.826,2.237-2.982,3.086c-0.434,0.318-1.495,0.14-2.068-0.177
		c-0.817-0.451-1.448-1.238-2.459-2.153c-0.405,1.098-1.082,2.001-0.958,2.777c0.28,1.765-0.416,2.883-2.06,3.824
		c0.834,0.6,1.426,1.025,2.184,1.57c0.478-0.759,0.857-1.363,1.229-1.953c1.156-0.142,4.645,2.005,4.676,3.027
		c0.021,0.682-0.347,1.497-0.799,2.034c-0.403,0.479-1.161,0.658-1.942,1.063c0.48,0.687,1.049,1.304,1.387,2.027
		c0.534,1.145,0.022,1.87-1.245,1.886c-0.751,0.01-1.504-0.074-2.528-0.131c0.403,1.029,0.705,1.801,1.098,2.804
		c-1.587,0.197-3.098,0.386-4.613,0.575c0.057,0.291,0.028,0.538,0.136,0.635c1.034,0.931,2.147,1.81,1.146,3.426
		c-0.87,1.403-3.772,2.4-5.475,1.767c-0.794-0.296-1.507-0.813-2.465-1.346c-0.778,1.042-1.555,2.08-2.779,3.719
		c4.977-1.236,7.988,1.774,11.954,2.883c-1.366,2.116-2.496,3.881-3.643,5.635c-0.579,0.885-1.375,1.051-2.262,0.517
		c-0.832-0.5-1.618-1.075-2.425-1.615c-1.276-0.854-2.61-1.388-4.066-0.466c-1.637,1.036-2.39-0.699-3.505-1.176
		c-2.063,2.965-1.936,3.17-5.648-0.013c-4.008,3.491-4.421,3.438-7.825-1.125c0.654-1.442,2.08-2.152,3.323-3.014
		c1.258-0.872,2.596-1.628,4.194-2.619c-1.769-2.197-4.716-3.794-4.016-7.442c1.169,0.125,2.442,0.262,3.709,0.398
		c0.137,1.225-0.138,2.719,0.485,3.478c1.072,1.308,2.643,2.263,4.137,3.138c0.49,0.287,1.689,0.128,2.058-0.281
		c1.327-1.478,2.438-3.149,3.964-5.196c-2.554-0.132-3.602,1.732-5.421,1.956c-2.898-2.61-1.531-5.506,0.028-8.713
		c-2.656,0.456-4.814,2.482-7.233,0.412c1.02-2.538,3.218-3.856,5.263-5.234c0.985-0.663,2.013,0.052,2.934,0.682
		c1.464,1.002,4.965,0.49,6.049-0.812c0.889-1.069,0.668-2.629-0.561-2.793c-3.695-0.494-5.086-2.779-5.286-6.179
		c-0.01-0.177-0.155-0.346-0.236-0.517c-2.524,0.035-3.108-0.391-3.806-2.827c-0.16-0.56-0.242-1.141-0.379-1.707
		c-0.775-3.201-0.777-3.2,0.62-6.268c2.829-0.043,4.375,1.624,5.363,4.029c0.295,0.719,0.69,1.421,0.842,2.17
		c0.621,3.079,2.541,4.664,5.862,4.999c0.399-0.6,0.915-1.373,1.626-2.438c-2.55-0.271-3.615-1.907-4.567-3.839
		c-0.878-1.779-2.109-3.385-3.399-5.404c3.355-0.918,6.207-1.698,9.215-2.521c-0.032-0.123-0.063-0.499-0.225-0.806
		c-1.206-2.279-0.826-2.983,1.791-3.298c1.337-0.161,2.674-0.336,4.003-0.555c0.213-0.035,0.381-0.337,0.769-0.703
		C224.29,50.287,222.203,51.837,219.992,50.765z"/>
	<path fill-rule="evenodd" clip-rule="evenodd" fill="#080808" d="M441.541,95.142c1.391-1.857,3.732-2.095,4.02-4.435
		c-0.675-0.207-1.313-0.359-1.916-0.599c-1.693-0.675-2.045-2.13-0.742-3.388c0.83-0.802,1.88-1.371,2.743-2.142
		c0.655-0.585,1.173-1.324,1.752-1.995c-0.138-0.176-0.274-0.351-0.411-0.526c-0.562,0.219-1.174,0.357-1.673,0.674
		c-0.817,0.518-1.546,1.173-2.341,1.729c-1.707,1.194-2.087,1.129-3.276-0.538c-0.279-0.393-0.496-0.83-0.885-1.49
		c-0.411,1.028-0.748,1.873-1.299,3.253c-1.038-2.9-1.935-5.402-2.889-8.064c0.493,0.056,1.171,0.131,2.074,0.233
		c0.427-1.715-0.554-3.098-1.069-4.597c-0.594-1.726-1.186-3.48-1.484-5.271c-0.315-1.89,0.25-2.484,2.171-2.578
		c3.271-0.16,6.409,0.247,9.021,2.87c1.387-2.002,2.696-3.893,4.229-6.105c2.647,3.284,3.542,7.289,5.854,10.785
		c1.037-2.1,1.986-4.023,3.114-6.31c-0.968-0.443-1.937-0.972-2.963-1.344c-3.113-1.127-3.327-1.397-3.18-4.597
		c0.022-0.485,0.049-0.97,0.071-1.455c0.135-2.99,0.135-2.971,3.152-2.88c0.761,0.023,1.526-0.12,2.378-0.195
		c0.717,1.244,1.452,2.521,2.41,4.184c0.668-0.904,1.087-1.378,1.396-1.915c0.272-0.476,0.422-1.022,0.671-1.652
		c2.379,0.157,4.095,1.532,5.731,2.776c2.014,1.532,3.964,2.224,6.449,1.398c1.214-0.402,2.487-0.276,3.235,1.564
		c-3.149,0.456-3.854,3.176-5.231,5.292c-0.477,0.732-1.001,1.443-1.387,2.223c-1.225,2.47-3.246,3.13-5.817,2.749
		c-1.341-0.199-2.698-0.377-4.051-0.396c-1.872-0.027-3.355,0.718-4.308,2.831c4.445,3.038,7.647,6.937,7.95,12.973
		c0.73,0.17,1.631,0.37,2.524,0.592c0.82,0.203,1.425,0.573,1.316,1.587c-0.248,2.31-2.939,6.582-5.543,8.368
		c0.643-1.748,1.149-3.126,1.892-5.143c-1.411,0.559-2.323,0.957-3.262,1.281c-0.994,0.345-2.043,0.85-2.961-0.148
		c-0.88-0.957-0.126-1.816,0.257-2.665c0.435-0.962,0.935-1.896,1.501-3.032c-2.67-0.995-2.108-3.678-3.37-5.839
		c-0.466,1.067-0.918,1.895-1.197,2.777c-1.491,4.715-2.938,9.444-4.4,14.169c-0.058,0.186-0.127,0.367-0.18,0.554
		c-0.342,1.233-0.709,2.795-2.075,2.843c-0.892,0.031-1.993-1.007-2.707-1.822C444.996,99.624,443.32,97.379,441.541,95.142z"/>
	<path fill-rule="evenodd" clip-rule="evenodd" fill="#080808" d="M130.304,138.82c2.104-0.928,4.21-1.855,6.543-2.883
		c0.11,1.908,0.198,3.434,0.291,5.048c2.379,0.167,3.15-2.61,5.295-2.735c1.13,1.896,0.22,4.375,2.208,6.263
		c1.559-1.493,3.09-2.96,4.738-4.539c2.003,2.601,0.29,5.422,1.355,7.95c1.893,0.457,3.164-0.599,4.548-1.981
		c-1.236-2.917-4.147-5.469-2.05-9.354c1.607-0.471,3.033,0.656,4.428,1.245c0.9,3.722,1.876,7.265,2.587,10.861
		c0.436,2.198,1.38,3.983,2.922,5.556c1.359,1.385,2.647,2.843,3.922,4.309c0.596,0.686,1.087,1.464,1.892,2.564
		c-2.17,0.442-3.83,0.781-5.949,1.214c0.622,0.97,1.037,1.664,1.5,2.325c0.434,0.621,0.917,1.206,1.359,1.784
		c-0.93,1.324-2.134,1.203-3.22,0.799c-1.714-0.638-3.396-1.396-5.011-2.258c-1.912-1.021-2.096-1.113-3.521,0.302
		c-3.906,3.878-8.711,4.62-14.078,4.288c-0.313-1.682-0.595-3.188-0.888-4.761c-1.433-0.961-3.002-0.568-4.521-0.555
		c-3.359,0.03-4.954-1.581-5.129-5.384c4.713-0.666,9.531-0.651,14.31-0.952c0.024-0.343,0.048-0.687,0.072-1.029
		c-0.922-0.374-1.813-0.874-2.77-1.097c-2.84-0.662-5.585-0.004-8.312,0.776c-2.906,0.832-4.599-0.174-5.33-3.118
		c-0.484-1.946,0.148-2.639,2.034-2.172c0.555,0.137,1.075,0.417,1.675,0.658c1.453-0.753,2.352-1.846,2.752-3.605
		c-1.417-0.143-1.811,0.919-2.442,1.508c-0.839,0.781-1.671,0.916-2.632,0.35c-1.672-0.986-3.278-2.047-4.361-4.229
		c1.258-0.749,2.443-1.454,3.568-2.124c0.325-1.502,0.646-2.989,0.969-4.476C129.474,139.187,129.889,139.003,130.304,138.82z"/>
	<path fill-rule="evenodd" clip-rule="evenodd" fill="#080808" d="M765.19,275.394c-5.189,4.035-10.379,8.07-15.638,12.159
		c-0.009,1.636,1.332,2.438,2.313,3.448c1.683,1.733,1.768,2.51-0.188,3.95c-2.146,1.58-3.906,3.35-5.263,5.7
		c-1.562,2.704-3.682,3.037-7.387,1.508c-0.2,1.354-0.467,2.619-0.563,3.897c-0.271,3.608-1.49,5.154-5.035,6.12
		c-0.935,0.255-1.91,0.355-2.854,0.586c-2.28,0.558-4.502,1.203-6.025,3.23c-0.568,0.756-1.247,1.473-2.465,1.049
		c-0.267-0.093-0.791,0.553-1.338,0.964c-0.244-1.296-0.52-2.469-0.68-3.656c-0.343-2.545,0.867-4.491,3.396-5.212
		c1.325-0.379,1.814-1.254,2.247-2.401c0.767-2.028,2.035-3.65,4.218-4.788c0.233,1.209,0.406,2.103,0.605,3.138
		c1.938-0.283,3.105-1.314,3.896-2.854c0.922-1.793,2.318-2.89,4.16-3.829c1.915-0.977,3.622-2.559,5.078-4.183
		c1.505-1.679,0.424-6.115-1.529-7.456c-1.496-1.026-1.496-1.026-1.828-3.388c0.25-0.073,0.535-0.262,0.766-0.208
		c3.479,0.804,6.904-1.652,7.153-5.151c0.068-0.965-0.489-1.362-1.32-1.624c-0.921-0.29-1.914-0.576-1.867-2.019
		c0.837-0.302,1.718-0.62,2.836-1.023c-1.351-2.054-0.708-4.076,0.241-5.98c0.817-1.64,0.997-3.287,0.896-5.071
		c-0.118-2.133-0.037-4.275-0.072-6.413c-0.014-0.872,0.146-1.864-0.206-2.593c-1.342-2.771-0.382-5.28,0.596-7.824
		c0.407-1.061,0.833-2.114,1.249-3.172c0.212,0.007,0.424,0.014,0.637,0.021c0.385,1.724,0.794,3.442,1.148,5.173
		c0.856,4.182,1.58,8.395,2.585,12.539c0.359,1.483-0.142,2.198-1.216,2.863c-1.381,0.854-2.933,1.515-3.704,3.219
		c1.065,1.239,2.08,2.42,3.363,3.912c-1.294,0.429-2.081,0.689-3.086,1.022c-0.076,0.811-0.317,1.776-0.223,2.708
		c0.205,2.004,2.434,3.837,4.379,4.452c2.585,0.818,4.684,0.181,6.755-1.286c1.094-0.773,2.281-1.41,3.427-2.109
		C764.829,275.005,765.01,275.199,765.19,275.394z"/>
	<path fill-rule="evenodd" clip-rule="evenodd" fill="#080808" d="M574.123,100.536c0.565,3.004,0.183,5.318-2.255,7.169
		c-6.19,4.699-12.339,9.457-18.413,14.306c-1.803,1.44-3.38,3.193-4.905,4.938c-0.674,0.771-0.948,1.887-1.423,2.837
		c-0.727,1.456-1.293,3.033-2.241,4.33c-1.935,2.645-3.081,5.574-3.893,8.704c-0.639,2.464,0.091,4.381,1.973,5.969
		c1.113,0.94,2.276,1.831,3.312,2.853c1.44,1.421,1.215,2.431-0.643,3.319c-1.979,0.947-4.007,0.856-5.898-0.107
		c-0.669-0.341-1.385-1.24-1.475-1.96c-0.397-3.189-2.384-4.946-5.051-6.24c-0.506-0.246-0.922-0.681-1.733-1.297
		c0.874-0.783,1.605-1.47,2.371-2.117c1.156-0.978,2.053-2.119,2.069-3.692c0.024-2.346,0.912-4.11,3.077-5.176
		c0.306-0.15,0.481-0.567,0.729-0.875c-0.671-1.558-1.312-3.043-1.977-4.587c0.575-0.383,0.953-0.676,1.367-0.904
		c2.356-1.303,3.595-3.216,3.2-5.967c-0.37-2.574,0.797-4.097,2.986-5.355c2.602-1.497,5.003-3.348,7.466-5.08
		c2.384-1.677,4.787-3.264,7.599-4.214c1.341-0.453,2.546-1.369,3.739-2.183C567.148,103.129,570.297,101.319,574.123,100.536z"/>
	<path fill-rule="evenodd" clip-rule="evenodd" fill="#080808" d="M177.676,100.755c5.433-2.164,6.68-1.729,10.452,3.61
		c1.845,0,3.859,0,5.897,0c0.42,2.444-2.214,2.396-2.747,4.143c1.862,0.498,1.542,2.679,2.73,3.846
		c1.239,1.218,2.511,2.404,3.815,3.65c0.89-0.663,1.64-1.222,2.565-1.91c1.277,2.151,3.052,1.34,4.851,1.153
		c2.264-0.234,2.566-2.054,3.697-4.333c0.563,1.081,0.944,1.813,1.413,2.711c1.354-0.739,2.426-1.325,3.661-1.999
		c2.487,1.124,4.019,3.342,5.793,5.474c-0.825,0.99-1.55,1.858-2.353,2.82c0.837,0.698,1.566,1.307,2.282,1.904
		c-0.662,2.171-1.44,2.936-3.265,3.015c-0.964,0.042-2.058,0.153-2.884-0.224c-3.07-1.398-5.813-0.406-8.724,0.601
		c-2.156,0.745-4.418,0.207-6.404-1.042c-0.481-0.303-0.916-0.683-1.179-0.882c-1.33,0.274-2.479,0.846-3.49,0.661
		c-4.525-0.831-6.34-4.552-4.506-8.938c0.259-0.619,0.629-1.19,0.971-1.829c-0.693-1.109-1.494-2.099-1.966-3.226
		c-0.437-1.045-0.521-2.236-0.821-3.645c-1.588,1.504-3.517,2.547-2.695,5.182c0.135,0.437,0.132,1.03-0.057,1.436
		c-1.117,2.396-0.103,4.084,1.693,5.582c0.363,0.304,0.673,0.713,0.901,1.132c1.04,1.896,0.401,3.34-1.695,3.92
		c-3.298,0.911-5.956-0.613-6.305-3.752c-0.085-0.767,0.36-1.608,0.638-2.389c0.084-0.237,0.454-0.357,0.635-0.579
		c3.157-3.852,3.312-5.53,0.853-9.925c-0.662-1.183-1.425-2.309-2.133-3.466C178.762,102.573,178.233,101.682,177.676,100.755z"/>
	<path fill-rule="evenodd" clip-rule="evenodd" fill="#080808" d="M186.228,62.243c-1.245-1.633-2.196-2.741-2.972-3.961
		c-0.37-0.58-0.713-1.476-0.524-2.05c0.333-1.009,1.243-0.491,1.986-0.3c0.528,0.137,1.095,0.128,2.238,0.244
		c-1.086-1.589-1.876-2.742-2.81-4.107c0.507-0.648,0.991-1.346,1.553-1.973c2.044-2.284,2.053-2.427-0.048-4.508
		c2.56-0.885,4.343-0.044,4.932,2.455c0.312,1.317,0.561,2.693,0.534,4.037c-0.035,1.802,0.76,3.025,2.233,3.77
		c2.345,1.186,3.609,2.84,3.087,5.585c-0.258,1.354,0.568,2.161,1.629,2.817c1.214,0.75,2.4,1.543,3.63,2.339
		c-0.421,1.263-0.747,2.239-1.108,3.321c1.771,1.148,4.537,0.616,5.189,3.689c-1.753,2.198-4.133,3.792-7.322,4.103
		c-0.295,2.759-0.578,5.402-0.861,8.046c-0.201,0.027-0.402,0.056-0.604,0.084c-0.478-1.207-0.955-2.414-1.433-3.621
		c-0.241,0.032-0.482,0.063-0.724,0.095c-0.17,1-0.324,2.002-0.512,2.998c-0.301,1.593-1.058,2.11-2.646,1.772
		c-1.523-0.324-2.537-1.309-3.257-2.479c1.064-0.824,2.051-1.589,3.381-2.619c-1.559-0.866-2.683-1.396-3.701-2.083
		c-1.021-0.689-1.935-1.535-2.923-2.333c1.989-2.113,4.658-1.954,7.205-2.607c-0.419-0.982-0.789-1.817-1.132-2.664
		c-0.631-1.561-1.449-1.858-2.853-0.988c-0.327,0.202-0.587,0.51-0.896,0.743c-1.888,1.425-2.544,1.251-4.066-1.17
		c0.415-0.226,0.804-0.497,1.234-0.654c0.438-0.161,0.916-0.208,1.541-0.34c-5.958-3.414-6.452-4.149-4.854-7.489
		c0.454,0.862,0.831,1.577,1.414,2.687C183.953,64.109,185.004,63.247,186.228,62.243z"/>
	<path fill-rule="evenodd" clip-rule="evenodd" fill="#080808" d="M725.071,397.69c2.837-1.058,4.896-0.636,6.558,1.707
		c0.614,0.867,1.747,1.367,3.182,2.434c-0.23-1.779-0.37-2.857-0.537-4.151c3.694,1.509,7.162,3.018,10.702,4.328
		c1.522,0.564,3.187,0.952,4.802,1.013c4.443,0.165,7.256,2.882,9.092,6.332c1.359,2.555,3.127,4.346,5.422,5.837
		c0.486,0.316,1.049,0.534,1.492,0.898c1.615,1.325,3.331,1.922,5.875,0.435c-0.449,1.437-0.73,2.291-0.983,3.153
		c-0.44,1.501-1.565,1.926-2.938,1.723c-0.942-0.14-1.925-0.384-2.755-0.83c-2.13-1.144-4.285-2.288-6.234-3.702
		c-1.256-0.912-2.403-1.196-3.761-0.647c-1.252,0.507-2.49,1.067-3.672,1.719c-1.111,0.612-2.259,0.818-3.325,0.199
		c-2.34-1.359-4.791-2.658-6.105-5.201c-0.563-1.09-1.368-1.733-2.411-2.353c-1.228-0.73-2.244-1.829-3.308-2.816
		c-1.188-1.1-2.527-1.84-4.174-1.741c-3.156,0.189-4.83-1.555-5.741-4.303C725.807,400.382,725.455,399.012,725.071,397.69z"/>
	<path fill-rule="evenodd" clip-rule="evenodd" fill="#080808" d="M130.304,138.82c-0.415,0.183-0.83,0.366-1.245,0.549
		c-4.139,1.952-7.412,4.578-7.355,9.42c-1.163,0.717-2.203,1.173-2.996,1.898c-0.831,0.761-1.426,1.78-2.16,2.735
		c-0.408-0.287-0.796-0.417-0.821-0.599c-0.353-2.447-2.031-3.774-3.928-5.066c-3.101-2.111-3.541-4.304-1.38-7.396
		c1.235-1.767,1.913-3.444,1.609-5.654c-0.121-0.878,0.626-1.948,1.151-2.828c1.403-2.351,1.418-2.306-0.507-4.231
		c-0.351-0.352-0.605-0.984-0.572-1.464c0.02-0.281,0.671-0.672,1.085-0.745c1.997-0.352,4.008-0.633,6.019-0.896
		c1.316-0.172,2.245,0.517,2.893,1.569c0.553,0.896,0.999,1.856,1.66,3.105c1.331-0.579,2.606-1.132,4.118-1.789
		c1.437,1.081,3.148,2.189,4.646,3.538c2.188,1.971,2.039,3.651-0.156,5.556C131.592,137.191,130.985,138.05,130.304,138.82z"/>
	<path fill-rule="evenodd" clip-rule="evenodd" fill="#080808" d="M395.469,257.23c1.67-1.269,3.34-2.536,5.412-4.109
		c-0.917-0.528-1.718-0.989-2.26-1.301c0.865-3.795,1.708-7.011,4.347-9.349c-1.291-1.662-3.034-0.175-4.329-1.225
		c0.173-0.94,0.359-1.958,0.529-2.88c-1.192-1.901-4.414-0.967-4.839-4.191c0.322-0.183,0.902-0.512,1.517-0.859
		c-1.329-0.967-2.438-1.771-3.618-2.63c0.834-1.006,1.559-1.881,2.329-2.811c-0.693-0.853-1.293-1.587-2.011-2.469
		c0.587-0.269,1.087-0.703,1.563-0.678c1.65,0.088,2.991-0.568,4.324-1.408c1.314-0.828,2.664-1.143,4.043,0.281
		c-0.428,0.809-0.858,1.628-1.452,2.755c0.985,0.406,1.883,0.685,2.688,1.131c0.97,0.537,2.423,1.053,2.662,1.871
		c0.417,1.424-1.25,1.927-2.227,2.654c-0.452,0.337-0.906,0.671-1.528,1.132c2.329,3.384,4.798,6.509,7.917,8.978
		c2.198,1.739,2.874,4.042,3.395,6.521c0.095,0.452,0.115,1.05-0.104,1.415c-0.897,1.496-1.893,2.905-1.161,4.819
		c0.092,0.24-0.405,0.882-0.771,1.081c-0.581,0.318-1.268,0.506-1.93,0.603c-3.833,0.561-7.667,1.11-11.511,1.587
		c-0.907,0.112-1.851-0.071-2.778-0.119C395.607,257.764,395.538,257.497,395.469,257.23z"/>
	<path fill-rule="evenodd" clip-rule="evenodd" fill="#080808" d="M643.122,67.193c0.835-1.257,1.67-2.514,2.602-3.917
		c2.166,1.214,2.922,3.196,3.601,5.155c0.18,0.521-0.068,1.579-0.475,1.846c-1.89,1.233-1.349,3.02-1.33,4.715
		c0.014,1.323,0.003,2.646,0.003,4.133c-3.167,0.027-5.829-0.146-8.046-2.387c-1.701-1.721-3.689-3.156-5.537-4.733
		c-0.642-0.548-1.246-1.139-2.005-1.835c1.379-1.606,4.521-2.246,2.474-5.668c-0.718,1.098-1.279,1.925-1.807,2.772
		c-0.646,1.035-1.465,1.205-2.449,0.521c-0.395-0.274-0.818-0.566-1.09-0.949c-0.781-1.102-1.85-2.364-1.006-3.673
		c0.827-1.281,2.115-0.072,3.195,0.075c0.452,0.062,0.892,0.214,1.955,0.478c-1.259-1.229-2.094-1.986-2.86-2.807
		c-1.455-1.559-1.503-2.363-0.535-4.158c0.913-1.693,1.465-3.664,2.674-5.091c1.404-1.656,3.302-2.925,5.113-4.177
		c0.294-0.203,1.474,0.383,1.858,0.895c1.396,1.853,2.627,3.829,3.704,5.438c-0.393,2.187-0.727,4.047-1.101,6.129
		c-3.015-0.23-5.239,1.137-6.719,4.106c1.93,0.068,3.19-1.017,4.484-1.923c0.846-0.593,1.554-1.112,2.594-0.369
		c0.92,0.658,1.203,1.453,0.957,2.519c-0.213,0.918-0.384,1.846-0.573,2.77C642.91,67.103,643.016,67.148,643.122,67.193z"/>
	<path fill-rule="evenodd" clip-rule="evenodd" fill="#080808" d="M529.822,424.212c0.878,3.058,1.018,6.212,0.556,9.362
		c-0.25,1.709-0.932,3.354-1.409,5.029c-0.98,3.443-1.921,6.898-2.943,10.329c-0.744,2.498-1.551,4.979-2.412,7.438
		c-0.63,1.798-1.943,3.073-3.439,4.221c-1.609,1.234-3.215,1.758-5.23,0.446c1.572-2.179,0.466-4.4-0.199-6.527
		c-0.926-2.961-0.794-5.613,0.774-8.362c0.604-1.06,0.605-2.638,0.44-3.924c-0.311-2.433,0.4-4.179,2.156-5.953
		c3.201-3.233,6.074-6.791,9.081-10.216c0.61-0.695,1.209-1.399,1.813-2.1C529.281,424.041,529.551,424.126,529.822,424.212z"/>
	<path fill-rule="evenodd" clip-rule="evenodd" fill="#080808" d="M696.394,382.707c-0.569,2.436-2.207,2.852-4.104,2.846
		c-1.432,2.89,1.291,4.714,1.668,7.265c-1.899,0.555-2.399,2.207-2.888,3.897c-0.592,2.046-1.322,4.054-1.851,6.114
		c-0.604,2.353-2.398,3.556-4.48,2.359c-2.054-1.18-4.023-1.748-6.345-1.419c-0.475,0.067-1.109-0.331-1.535-0.68
		c-2.889-2.37-5.155-5.289-6.96-8.522c-0.778-1.394-1.26-3.039-0.328-4.923c2.207,0.563,2.717,2.636,4.05,4.203
		c2.545-0.256,5.234-0.486,7.913-0.813c1.184-0.145,1.771-1.016,1.332-2.099c-0.728-1.794,0.205-2.984,1.189-4.214
		c1.397-1.744,2.878-3.426,4.191-5.229c0.904-1.244,1.9-1.534,3.258-0.925C693.081,381.275,694.671,381.955,696.394,382.707z"/>
	<path fill-rule="evenodd" clip-rule="evenodd" fill="#080808" d="M154.069,112.099c1.036-0.983,1.799-1.707,2.56-2.43
		c2.81,2.86,2.614,5.824-0.657,11.75c-1.421-0.099-2.821-0.195-4.743-0.329c-0.2-0.305-0.678-1.028-1.222-1.854
		c-0.861,0.519-1.493,0.762-1.938,1.197c-0.83,0.812-1.559,1.729-2.318,2.612c-2.767,3.211-5.824,3.543-9.762,0.753
		c2.991-1.366,4.805-4.351,8.426-4.779c-2.045-0.549-4.09-1.098-6.015-1.614c-1.414,0.903-2.733,2.398-4.108,2.45
		c-1.537,0.059-3.124-1.192-5.248-2.117c1.218-0.943,1.885-1.564,2.649-2.022c0.813-0.486,1.719-0.818,2.938-1.381
		c-0.883-0.709-1.562-1.165-2.129-1.733c-0.589-0.59-1.07-1.289-1.579-1.916c1.125-0.957,2.077-1.684,2.929-2.513
		c0.89-0.865,1.683-1.829,2.776-3.034c2.144,2.08,4.79,3.469,5.737,6.142c1.026,2.895,3.357,4.046,5.509,5.595
		c2.007-2.622,1.99-3.184,0.123-4.572c0-1.204,0.317-2.415-0.056-3.35c-1.5-3.763-1.438-4.141,2.168-6.065
		c1.287,0.279,1.897,1.335,1.501,2.365C150.454,108.263,152.512,109.903,154.069,112.099z"/>
	<path fill-rule="evenodd" clip-rule="evenodd" fill="#080808" d="M357.099,192.924c-1.963-0.324-3.688-0.609-5.414-0.894
		c-0.047-0.207-0.094-0.413-0.141-0.619c1.204-0.642,2.407-1.284,3.722-1.985c-1.187-0.462-2.213-0.86-3.409-1.326
		c0.766-3.259,2.457-5.546,4.979-7.204c0.368,0.191,0.583,0.234,0.684,0.366c0.655,0.865,0.14,2.331,1.671,2.81
		c1.678,0.524,3.302,1.283,5.071,0.618c1.721-0.646,3.406-1.393,5.078-2.156c2.115-0.965,2.795-0.949,4.411,0.613
		c1.183,1.145,2.256,2.405,3.337,3.649c1.047,1.203,0.97,2.427,0.024,3.694c-2.379,3.189-5.527,5.587-9.022,7.169
		c-1.941,0.879-4.579,0.49-6.86,0.258c-1.766-0.181-3.465-1.007-5.432-1.62C356.184,195.295,356.549,194.35,357.099,192.924z"/>
	<path fill-rule="evenodd" clip-rule="evenodd" fill="#080808" d="M556.176,47.988c1.704,2.265,1.685,4.382,1.074,6.928
		c-0.681,2.845-3.152,3.09-5.09,4.322c0.594,2.137,1.351,4.253-0.894,5.842c-1.063,0.754-2.101,1.298-3.664,0.253
		c2.926-1.271,3.341-3.642,3.58-6.783c-1.762,1.292-3.122,2.295-4.489,3.29c-2.155,1.57-2.326,1.553-4.044-0.396
		c-0.385-0.438-0.744-0.896-1.135-1.327c-0.794-0.875-1.686-0.863-2.594-0.207c-0.708,0.51-1.348,1.119-2.078,1.592
		c-0.938,0.608-1.871,0.548-2.546-0.427c-0.669-0.967-0.923-1.944,0.283-2.76c0.388-0.262,0.836-0.521,1.079-0.896
		c1.484-2.283,2.107-2.514,4.544-1.519c0.438,0.18,0.864,0.394,1.365,0.623c1.139-0.986,0.996-1.77-0.15-2.554
		c-0.784-0.538-1.516-1.151-3.115-2.38c0.785-0.2,1.185-0.274,1.563-0.408c0.269-0.096,0.509-0.273,0.868-0.475
		c-4.145-1.937-2.9-4.179-1.04-6.737c2.043,1.43,1.319,3.789,2.56,5.472c1.482,0.448,2.572-0.39,3.9-1.562
		c-0.871-0.411-1.527-0.715-2.178-1.029c-1.205-0.582-1.59-1.698-0.873-2.646c2.069-2.736,4.338-5.322,6.57-8.018
		c1.439,2.653,1.439,2.653-1.912,5.946c0.981,0.366,1.908,0.712,3.356,1.252c-1.367,0.938-2.345,1.606-3.312,2.27
		c0.338,1.486,0.986,2.957,0.907,4.388c-0.08,1.452-0.878,2.865-1.478,4.638c1.608,0.13,2.825,0.228,4.061,0.326
		C553.193,52.886,553.376,49.655,556.176,47.988z"/>
	<path fill-rule="evenodd" clip-rule="evenodd" fill="#080808" d="M742.765,120.605c-0.744,1.37-1.365,2.516-2.269,4.18
		c-0.733-1.341-1.358-2.173-1.666-3.11c-0.752-2.29-1.434-4.61-1.97-6.958c-0.148-0.651,0.158-1.534,0.528-2.146
		c0.588-0.972,1.404-1.806,2.134-2.711c2.646,0.239,4.192,2.088,6.28,3.734c0.574-1.396,1.061-2.578,1.598-3.884
		c2.373-0.109,3.853,1.474,5.463,2.779c0.072,0.06,0.118,0.152,0.173,0.232c3.148,4.61,3.198,5.188-1.088,8.65
		c-0.417-0.263-0.933-0.5-1.332-0.864c-0.421-0.384-0.732-0.889-1.281-1.581C747.396,120.96,745.22,121.552,742.765,120.605z"/>
	<path fill-rule="evenodd" clip-rule="evenodd" fill="#080808" d="M825.479,502.087c1.335,0.976,1.693,2.042,1.087,3.404
		c-1.063,2.388-2.043,4.816-3.192,7.162c-0.638,1.302-0.813,1.262-4.397,1.556c0.129,3.735-1.866,6.404-4.849,8.488
		c-1.173,0.819-2.222,1.885-4.188,1.709c1.009-1.707,0.091-2.816-0.886-4.021c-1.787-2.202-1.766-2.286,0.402-4.224
		c2.096-1.873,4.191-3.764,6.438-5.446c2.126-1.594,3.489-3.56,4.128-6.117c0.244-0.977,0.716-1.896,1.181-3.092
		C822.775,502.639,824.144,503.143,825.479,502.087z"/>
	<path fill-rule="evenodd" clip-rule="evenodd" fill="#080808" d="M168.505,133.583c1.047-1.104,1.959-2.067,3.019-3.186
		c0.838,0.943,1.574,1.774,2.553,2.877c0.911-1.784,1.699-3.33,2.745-5.38c1.736,3.935-0.087,6.731-1.235,9.925
		c0.759,0.688,1.546,1.511,2.441,2.191c1.502,1.141,2,2.619,1.523,4.368c-0.799,2.934-1.908,5.679-5.253,6.875
		c-0.262-0.413-0.592-0.704-0.633-1.032c-0.381-3.038-2.442-4.953-4.463-6.938c-1.421-1.395-2.71-2.923-4.354-4.715
		c2.364-0.47,3.212,1.396,4.696,1.574c1.706-1.531,1.752-1.674,0.859-3.276C169.799,135.781,169.161,134.715,168.505,133.583z"/>
	<path fill-rule="evenodd" clip-rule="evenodd" fill="#080808" d="M654.888,71.424c0.302,0.584,0.553,1.005,0.743,1.45
		c1.48,3.471,3.019,6.92,4.355,10.445c0.219,0.578-0.281,1.656-0.773,2.22c-0.615,0.702-1.506,1.258-2.384,1.618
		c-2.21,0.906-4.485,1.584-6.519,2.959c-1.277,0.863-2.729,0.274-3.874-1.014c-1.089-1.224-1.26-2.584-0.238-3.97
		c0.797-1.082,1.843-1.979,2.77-2.966c0.868-0.926,1.764-1.784,1.081-3.305c-0.209-0.467,0.016-1.341,0.352-1.802
		C651.644,75.356,653.017,73.748,654.888,71.424z"/>
	<path fill-rule="evenodd" clip-rule="evenodd" fill="#080808" d="M163.027,104.356c1.687,1.434,0.983,4.318,3.397,4.93
		c0.975,0.246,2.013,0.244,3.071,0.36c0.452-2.492-1.924-4.421-0.507-6.804c1.986,0.229,2.16,2.333,3.567,3.348
		c0.873-0.556,1.8-1.147,2.918-1.86c1.827,2.197,2.56,4.666,2.535,7.285c-0.032,3.449-1.738,6.304-3.86,8.886
		c-0.91,1.106-2.094,1.113-3.395,0.352c-1.285-0.753-1.333-1.774-0.738-2.974c0.258-0.52,0.747-1.044,0.732-1.554
		c-0.026-0.89-0.155-1.903-0.618-2.622c-0.588-0.911-1.516-0.449-2.324-0.012c-0.563,0.305-1.188,0.495-2.085,0.857
		c0.111-1.687,0.201-3.064,0.3-4.568c-1.698-0.347-3.599,0.014-4.043-2.233C161.709,106.38,161.925,105.345,163.027,104.356z"/>
	<path fill-rule="evenodd" clip-rule="evenodd" fill="#080808" d="M121.125,113.559c-0.07-0.637-0.14-1.273-0.24-2.191
		c-1.212,0.356-2.371,0.696-3.5,1.027c-1.851-2.376-1.732-4.128,0.318-6.025c2.632-2.437,5.183-4.965,7.885-7.32
		c2.375-2.069,4.91-3.955,7.691-6.176c0.413,2.508,0.656,4.4-0.751,6.22c-0.547,0.706-1.018,1.814-0.887,2.639
		c0.452,2.848-1.07,4.753-2.974,7.21c-0.617-1.726-1.098-3.066-1.825-5.102c-1.881,3.688-3.472,6.807-5.063,9.926
		C121.563,113.696,121.343,113.628,121.125,113.559z"/>
	<path fill-rule="evenodd" clip-rule="evenodd" fill="#080808" d="M530.435,51.323c1.196,1.308,2.213,2.418,3.654,3.993
		c-4.359-0.246-5.626,3.012-8.08,5.511c1.595,0.564,2.903,1.026,4.215,1.491c-1.699,2.225-3.372,3.193-4.584,2.396
		c-1.365-0.898-2.588-2.033-3.793-3.15c-1.605-1.488-0.029-3.075,0.038-4.688c-2.003-0.991-4.509-0.032-6.293-1.627
		c1.962-4.985,1.967-4.991,7.043-4.975c0.376,0.001,0.751,0.078,1.168,0.124c0.672,1.163,1.319,2.285,2.249,3.896
		c0.972-2.365,3.396-2.658,3.953-4.865c0.139-0.55,1.271-0.848,1.947-1.261c0.124,0.146,0.248,0.293,0.372,0.439
		C531.752,49.431,531.18,50.253,530.435,51.323z"/>
	<path fill-rule="evenodd" clip-rule="evenodd" fill="#080808" d="M172.421,91.244c-1.642-0.525-3.229-0.921-3.441-3.393
		c-0.081-0.933-1.61-1.74-2.212-2.338c-1.787,0.234-3.215,0.723-4.517,0.494c-0.965-0.169-1.767-1.269-3.001-2.236
		c1.158-0.515,1.863-0.753,2.486-1.126c0.556-0.333,1.021-0.816,1.685-1.363c-1.434-1.218-2.73-2.316-4.024-3.418
		c-0.368-0.313-0.759-0.608-1.09-0.959c-1.311-1.385-1.434-2.357-0.44-3.209c1.503-1.288,3.491-1.437,4.327-0.008
		c1.652,2.824,4.38,4.328,6.855,6.159c3.729,2.757,4.357,6.617,3.926,10.862C172.961,90.852,172.714,90.97,172.421,91.244z"/>
	<path fill-rule="evenodd" clip-rule="evenodd" fill="#080808" d="M822.705,483.076c1.751,1.578,3.502,3.157,5.389,4.857
		c-0.094,0.504-0.212,1.132-0.357,1.909c2.726-0.194,3.33,2.353,4.889,3.729c1.508-0.044,3.149-2.415,4.409,0.16
		c-0.522,3.773-4.097,5.391-5.773,8.353c-0.74,1.307-1.849,2.405-3.12,4.015c-0.643-2.36-0.122-4.021,0.69-5.799
		c-1.231-0.469-2.362-0.9-3.85-1.466c0.483-1.034,0.858-1.972,1.344-2.849c1.435-2.596,0.878-5.3-1.522-7.104
		C822.93,487.474,822.73,485.386,822.705,483.076z"/>
	<path fill-rule="evenodd" clip-rule="evenodd" fill="#080808" d="M393.831,238.255c2.147,1.146,2.438,2.534,1.909,4.373
		c-0.425,1.479-0.749,3.04-0.761,4.567c-0.015,1.767-0.712,2.952-2.129,3.848c-0.327,0.207-0.624,0.462-0.944,0.682
		c-3.501,2.396-4.307,2.263-7.315-1.361c0.788-0.392,1.542-0.727,2.258-1.129c1.436-0.809,1.631-1.402,0.823-2.812
		c-0.616-1.075-1.352-2.082-2.136-3.275C388.055,240.76,391.263,240.015,393.831,238.255z"/>
	<path fill-rule="evenodd" clip-rule="evenodd" fill="#080808" d="M709.787,391.789c-1.275,1.849-2.965,3.067-5.093,3.551
		c-2.228,0.506-3.664,1.988-5.377,3.832c1.435,1.718,2.766,3.313,4.209,5.043c-1.626,1.398-3.197,2.749-4.9,4.214
		c-1.122-1.021-2.154-1.763-2.939-2.711c-1.99-2.404-2.289-5.091-0.809-7.855c1.486-2.775,3.412-5.093,7-4.607
		C704.694,393.637,707.145,392.567,709.787,391.789z"/>
	<path fill-rule="evenodd" clip-rule="evenodd" fill="#080808" d="M209.303,342.653c1.41-2.22,3.427-3.241,5.658-3.96
		c0.18-0.058,0.42-0.131,0.567-0.061c4.013,1.928,8.829,1.296,12.61,4.053c1.594,1.161,2.954,2.413,3.884,4.146
		c-2.933,1.729-5.825,1.729-8.107-0.374c-2.579-2.375-5.524-3.518-8.949-3.601c-0.643-0.015-1.464-0.069-1.903,0.275
		C211.613,344.269,210.61,343.364,209.303,342.653z"/>
	<path fill-rule="evenodd" clip-rule="evenodd" fill="#080808" d="M753.481,500.693c1.344-0.393,2.147-0.521,2.966,0.587
		c1.29,1.744,4.465,1.949,6.693,0.529c-0.207-0.723-0.426-1.486-0.729-2.538c1.222,0.389,2.196,0.7,3.429,1.092
		c-0.483,0.935-0.853,1.651-1.224,2.368c1.416,3.197-0.396,7.568-3.651,8.873c-0.997,0.399-1.75,0.104-2.185-0.782
		c-0.849-1.727-1.652-3.48-2.374-5.263c-0.357-0.884-0.321-1.953-0.779-2.76C755.198,502.041,754.353,501.518,753.481,500.693z"/>
	<path fill-rule="evenodd" clip-rule="evenodd" fill="#080808" d="M698.602,364.519c-1.48-3.129-2.817-6.097-2.972-9.216
		c1.252-1.258,2.271-2.357,3.372-3.367c1.062-0.974,3.453-0.257,3.761,1.166c0.222,1.026,0.302,2.135,0.175,3.173
		c-0.232,1.899-0.642,3.778-1.02,5.656C701.6,363.516,700.313,363.988,698.602,364.519z"/>
	<path fill-rule="evenodd" clip-rule="evenodd" fill="#080808" d="M759.418,113.284c3.038,2.685,7.03,3.181,10.576,4.733
		c0.513,0.225,0.972,0.571,1.6,0.947c-0.334,0.783-0.625,1.475-0.924,2.162c-0.9,2.065-2.57,2.854-4.607,2.012
		c-0.964-0.398-2.112-0.886-2.648-1.687c-1.604-2.396-2.952-4.965-4.376-7.479C758.991,113.89,759.204,113.659,759.418,113.284z"/>
	<path fill-rule="evenodd" clip-rule="evenodd" fill="#080808" d="M176.186,80.912c3.654-0.729,6.336,0.657,7.471,3.646
		c0.034,0.091,0.043,0.19,0.076,0.281c1.362,3.683,1.005,4.582-2.677,6.004c-0.591,0.229-1.551,0.037-2.11-0.319
		c-0.779-0.497-1.343-1.333-1.964-1.987c0.205-1.432,1.721-2.361,0.762-3.901C177.05,83.522,176.705,82.192,176.186,80.912z"/>
	<path fill-rule="evenodd" clip-rule="evenodd" fill="#080808" d="M707.493,376.548c1.803-1.915,3.069-3.262,4.395-4.669
		c3.143,4.439,1.655,9.013-1.951,10.714c-3.263-2.309-5.56-5.218-5.775-7.334C705.439,375.753,706.715,376.246,707.493,376.548z"/>
	<path fill-rule="evenodd" clip-rule="evenodd" fill="#080808" d="M247.146,351.393c-0.912,0.159-1.822,0.329-2.736,0.477
		c-1.181,0.191-2.563-0.2-3.263,1.322c-0.117,0.253-0.888,0.373-1.306,0.292c-1.888-0.37-3.774-0.771-5.622-1.303
		c-0.559-0.16-0.988-0.771-1.843-1.478c1.199-0.534,2.018-0.978,2.887-1.268c1.713-0.572,3.426-1.229,5.193-1.517
		c1.07-0.175,2.348,0.045,3.343,0.5c1.262,0.576,2.333,1.572,3.486,2.388C247.239,351.002,247.192,351.197,247.146,351.393z"/>
	<path fill-rule="evenodd" clip-rule="evenodd" fill="#080808" d="M143.404,96.811c-2.191-1.022-3.86-1.78-4.736-3.808
		c-0.365-0.846-1.621-1.308-2.521-1.981c1.462-0.911,3.135-0.575,4.672-0.023c4.518-2.871,5.891-3.074,8.047-1.273
		c-1.02,1.087-2.124,2.107-3.035,3.278C144.959,94.124,144.288,95.402,143.404,96.811z"/>
	<path fill-rule="evenodd" clip-rule="evenodd" fill="#080808" d="M835.845,151.864c1.64-1.403,3.124-2.775,4.73-3.983
		c0.448-0.337,1.313-0.383,1.896-0.227c1.477,0.397,2.9,0.986,4.352,1.5c0.384,1.377-0.008,2.277-1.28,2.865
		c-1.033,0.477-2.007,1.083-2.903,1.575c-1.08,0-2.241-0.311-3.105,0.063C837.699,154.453,836.831,153.617,835.845,151.864z"/>
	<path fill-rule="evenodd" clip-rule="evenodd" fill="#080808" d="M753.503,135.071c-2.137,1.393-6.079,0.727-9.038-1.53
		c0.236-0.164,0.425-0.324,0.64-0.436c0.245-0.128,0.513-0.214,0.857-0.353c0.215-2.415-2.059-5.101,0.654-7.644
		c0.395,0.821,0.701,1.3,0.861,1.822c0.532,1.729,1.54,3.043,3.025,4.099C751.916,132.033,753.15,133.261,753.503,135.071z"/>
	<path fill-rule="evenodd" clip-rule="evenodd" fill="#080808" d="M433.51,296.225c-2.686-0.229-2.897-0.466-3.201-2.301
		c-0.227-1.368-0.674-2.7-1.102-4.353c0.484-0.232,1.301-0.624,2.422-1.161c-0.238-0.813-0.52-1.59-0.683-2.39
		c-0.129-0.634-0.274-1.344-0.105-1.932c0.128-0.447,0.818-1.113,1.116-1.047c0.531,0.119,1.408,0.797,1.355,1.104
		C432.612,288.138,434.683,292.083,433.51,296.225z"/>
	<path fill-rule="evenodd" clip-rule="evenodd" fill="#080808" d="M564.28,43.539c0.453,1.928,0.91,3.873,1.378,5.864
		c-1.44,1.021-2.813,1.992-4.22,2.988c-2-1.694-2.577-3.259-1.886-5.292C560.29,44.932,561.771,43.787,564.28,43.539z"/>
	<path fill-rule="evenodd" clip-rule="evenodd" fill="#080808" d="M603.832,382.58c-3.495-3.273-3.723-5.354-1.053-9.295
		c2.214,1.223,3.539,3.356,4.107,5.521C607.317,380.45,605.729,381.883,603.832,382.58z"/>
	<path fill-rule="evenodd" clip-rule="evenodd" fill="#080808" d="M699.122,342.469c-3.085-3.491-2.64-6.828,0.826-9.023
		c0.888-0.563,1.258-0.425,2.979,1.192c-0.652,1.188-1.377,2.398-1.994,3.663C700.309,339.582,699.791,340.916,699.122,342.469z"/>
	<path fill-rule="evenodd" clip-rule="evenodd" fill="#080808" d="M139.514,85.415c2-1.422,3.999-2.845,6.137-4.366
		c1.854,1.342,1.994,3.39,2.037,5.826c-2.866,0.316-5.483-0.421-8.134-0.837C139.54,85.83,139.527,85.623,139.514,85.415z"/>
	<path fill-rule="evenodd" clip-rule="evenodd" fill="#080808" d="M231.104,174.5c-0.006,1.832-1.074,2.885-2.862,2.821
		c-1.64-0.058-2.724-0.96-2.766-2.301c-0.048-1.596,1.993-3.537,3.754-3.57C230.37,171.429,231.109,172.633,231.104,174.5z"/>
	<path fill-rule="evenodd" clip-rule="evenodd" fill="#080808" d="M523.746,163.788c2.881-2.148,3.691-2.138,5.32-0.271
		c1.147,1.314,1.218,2.087,0.275,3.014c-1.212,1.193-2.881,1.395-3.862,0.256C524.757,165.948,524.34,164.846,523.746,163.788z"/>
	<path fill-rule="evenodd" clip-rule="evenodd" fill="#080808" d="M159.641,136.863c-1.503-1.452-2.834-2.738-4.217-4.075
		c2.606-1.849,4.003-2.036,5.046-0.864C161.771,133.386,161.677,134.345,159.641,136.863z"/>
	<path fill-rule="evenodd" clip-rule="evenodd" fill="#080808" d="M673.592,344.304c0.228,0.9,0.438,1.805,0.686,2.698
		c0.353,1.274,1.06,2.574-0.016,3.799c-0.834,0.95-2.613,0.927-4.664-0.014c1.34-2.168,2.671-4.322,4.009-6.479
		C673.614,344.306,673.592,344.304,673.592,344.304z"/>
	<path fill-rule="evenodd" clip-rule="evenodd" fill="#080808" d="M162.074,100.157c-1.544,0.807-2.637,0.081-3.284-1.221
		c-1.019-2.046-1.573-4.236-1.312-6.732C160.057,94.985,161.677,97.808,162.074,100.157z"/>
	<path fill-rule="evenodd" clip-rule="evenodd" fill="#080808" d="M174.365,62.521c2.852,2.43,0.824,4.588,0.114,6.908
		C171.392,66.822,171.353,64.467,174.365,62.521z"/>
	<path fill-rule="evenodd" clip-rule="evenodd" fill="#080808" d="M773.843,267.584c0.46-0.782,0.779-1.71,1.408-2.317
		c1.672-1.611,2.94-3.338,2.437-5.879c1.371-0.41,2.508-0.749,3.379-1.01c-1.088,1.985-2.209,4.075-3.373,6.142
		c-0.807,1.431-1.761,2.74-3.208,3.561C774.271,267.915,774.057,267.749,773.843,267.584z"/>
	<path fill-rule="evenodd" clip-rule="evenodd" fill="#080808" d="M413.267,296.569c-0.012-2.157,1.593-2.335,2.471-3.165
		c0.956-0.904,1.747-1.984,2.727-3.123c1.071,0.826,1.801,1.389,2.809,2.166c-1.808,0.998-2.945,2.345-5.02,2.257
		C415.432,294.67,414.564,295.717,413.267,296.569z"/>
	<path fill-rule="evenodd" clip-rule="evenodd" fill="#080808" d="M187.063,95.431c-3.382,0.516-3.382,0.516-5.727-1.258
		c0.271-1.716,1.374-2.081,2.914-1.832C186.203,92.657,186.584,93.033,187.063,95.431z"/>
	<path fill-rule="evenodd" clip-rule="evenodd" fill="#080808" d="M208.229,205.162c2.163-1.809,3.071-4.695,6.264-2.684
		c-0.806,1.846-2.258,3.005-4.024,3.689C210.028,206.339,209.254,205.648,208.229,205.162z"/>
	<path fill-rule="evenodd" clip-rule="evenodd" fill="#080808" d="M125.695,116.063c-1.277-2.744-1.154-3.025,2.24-5.514
		C128.852,114.157,128.653,114.681,125.695,116.063z"/>
	<path fill-rule="evenodd" clip-rule="evenodd" fill="#080808" d="M193.23,93.937c1.553,0.819,2.208,1.996,1.992,3.403
		c-0.199,1.295-1.324,1.74-3.058,1.952C192.548,97.369,192.868,95.756,193.23,93.937z"/>
	<path fill-rule="evenodd" clip-rule="evenodd" fill="#080808" d="M561.102,39.744c-1.388-0.718-2.546-1.144-2.477-2.721
		C561,37.274,561.209,37.481,561.102,39.744z"/>
	<path fill-rule="evenodd" clip-rule="evenodd" fill="#080808" d="M219.02,208.247c-0.605-1.668,0.061-2.587,1.12-3.441
		C221.093,206.917,221.093,206.917,219.02,208.247z"/>
	<path fill-rule="evenodd" clip-rule="evenodd" fill="#080808" d="M225.856,198.829c-0.47,0.44-0.94,0.882-1.411,1.322
		c-0.238-0.261-0.71-0.717-0.68-0.753c0.411-0.491,0.892-0.924,1.355-1.37C225.366,198.295,225.611,198.562,225.856,198.829z"/>
</g>
</svg>
