<?xml version="1.0" encoding="utf-8"?>
<!-- Generator: Adobe Illustrator 16.0.0, SVG Export Plug-In . SVG Version: 6.00 Build 0)  -->
<!DOCTYPE svg PUBLIC "-//W3C//DTD SVG 1.1 Basic//EN" "http://www.w3.org/Graphics/SVG/1.1/DTD/svg11-basic.dtd">
<svg version="1.1" baseProfile="basic" id="Capa_1" xmlns="http://www.w3.org/2000/svg" xmlns:xlink="http://www.w3.org/1999/xlink"
	 x="0px" y="0px" width="147.578px" height="177.151px" viewBox="0 790.247 147.578 177.151" xml:space="preserve">
<g>
	<path fill="#9B6D24" d="M32.014,923.051c0.384,24.563,20.572,44.385,45.134,44.348c24.874-0.036,45.025-20.206,45.025-45.079
		c0-15.686-8.017-29.505-20.169-37.576l0,0v-7.815c0-3.276-2.343-6.021-5.436-6.625H57.619c-3.093,0.604-5.436,3.349-5.436,6.625
		v7.815l0,0C39.829,892.944,31.758,907.073,32.014,923.051z M94.298,947.504c0.714-0.477,1.391-0.988,2.05-1.52
		c7.23-5.82,11.458-14.588,11.458-23.939c0-7.999-3.111-15.649-8.621-21.342c-0.585-0.604-1.208-1.208-1.849-1.757
		c-1.336-1.172-1.464-3.185-0.293-4.521c1.171-1.337,3.185-1.465,4.521-0.293c8.053,7.064,12.665,17.241,12.665,27.93
		c0,12.336-6.113,23.849-16.344,30.767c-0.549,0.367-1.171,0.549-1.793,0.549c-1.025,0-2.032-0.493-2.654-1.409
		C92.468,950.488,92.834,948.491,94.298,947.504z M64.776,878.466h24.654c1.263,0,2.288,1.024,2.288,2.288
		c0,1.262-1.025,2.287-2.288,2.287H64.776c-1.263,0-2.288-1.025-2.288-2.287C62.488,879.49,63.512,878.466,64.776,878.466z"/>
	<path fill="#D7D7E5" d="M47.644,860.859c0.146-0.329,0.311-0.641,0.513-0.951l23.885-36.898l-21.378-33.037H1.778L47.644,860.859z"
		/>
	<path fill="#D7D7E5" d="M98.709,790.247l-23.94,36.971L52,862.397c-0.585,0.914-0.403,1.994,0.256,2.689
		c0.385,0.402,0.934,0.659,1.556,0.659h43.725c0.732,0,1.428-0.366,1.812-0.988l48.228-74.51H98.709z"/>
</g>
</svg>
