<?xml version="1.0" encoding="utf-8"?>
<!-- Generator: Adobe Illustrator 16.0.0, SVG Export Plug-In . SVG Version: 6.00 Build 0)  -->
<!DOCTYPE svg PUBLIC "-//W3C//DTD SVG 1.1 Basic//EN" "http://www.w3.org/Graphics/SVG/1.1/DTD/svg11-basic.dtd">
<svg version="1.1" baseProfile="basic" id="Capa_1" xmlns="http://www.w3.org/2000/svg" xmlns:xlink="http://www.w3.org/1999/xlink"
	 x="0px" y="0px" width="129.559px" height="126.15px" viewBox="9.009 790.247 129.559 126.15" xml:space="preserve">
<g>
	<path fill="#9B6D24" d="M37.699,882.721c0.292,18.651,15.623,33.705,34.275,33.677c18.889-0.027,34.191-15.345,34.191-34.232
		c0-11.912-6.088-22.406-15.316-28.535l0,0v-5.935c0-2.488-1.779-4.573-4.127-5.031H57.144c-2.349,0.458-4.127,2.543-4.127,5.031
		v5.935l0,0C43.635,859.858,37.505,870.588,37.699,882.721z M84.997,901.291c0.542-0.364,1.056-0.751,1.557-1.154
		c5.49-4.42,8.701-11.079,8.701-18.181c0-6.073-2.362-11.885-6.546-16.205c-0.444-0.46-0.917-0.919-1.403-1.335
		c-1.015-0.891-1.113-2.418-0.223-3.433c0.89-1.015,2.419-1.112,3.434-0.223c6.115,5.364,9.618,13.093,9.618,21.209
		c0,9.368-4.642,18.111-12.412,23.364c-0.417,0.278-0.89,0.417-1.362,0.417c-0.778,0-1.542-0.375-2.016-1.07
		C83.608,903.556,83.885,902.039,84.997,901.291z M62.579,848.863h18.721c0.958,0,1.738,0.778,1.738,1.738
		c0,0.959-0.779,1.737-1.738,1.737H62.579c-0.959,0-1.738-0.778-1.738-1.737C60.841,849.641,61.62,848.863,62.579,848.863z"/>
</g>
<g>
	<path fill="#939393" d="M70.102,830.304c0.292,18.651,15.622,33.705,34.274,33.677c18.889-0.027,34.191-15.345,34.191-34.232
		c0-11.912-6.088-22.406-15.316-28.535l0,0v-5.935c0-2.488-1.779-4.573-4.127-5.031H89.547c-2.35,0.458-4.128,2.543-4.128,5.031
		v5.935l0,0C76.037,807.441,69.908,818.171,70.102,830.304z M117.4,848.874c0.542-0.364,1.056-0.751,1.557-1.155
		c5.49-4.419,8.7-11.078,8.7-18.18c0-6.073-2.362-11.885-6.546-16.206c-0.444-0.459-0.917-0.918-1.403-1.335
		c-1.015-0.89-1.113-2.418-0.223-3.432c0.89-1.015,2.418-1.112,3.434-0.224c6.115,5.365,9.618,13.094,9.618,21.21
		c0,9.368-4.642,18.11-12.412,23.364c-0.417,0.277-0.89,0.417-1.363,0.417c-0.778,0-1.542-0.375-2.015-1.07
		C116.01,851.139,116.288,849.622,117.4,848.874z M94.982,796.446h18.722c0.958,0,1.738,0.777,1.738,1.738
		c0,0.958-0.779,1.737-1.738,1.737H94.982c-0.959,0-1.738-0.779-1.738-1.737C93.244,797.223,94.022,796.446,94.982,796.446z"/>
</g>
<g>
	<path fill="#DDCA1B" d="M9.013,830.513c0.292,18.652,15.622,33.706,34.275,33.678c18.889-0.027,34.191-15.345,34.191-34.233
		c0-11.911-6.088-22.405-15.316-28.534l0,0v-5.935c0-2.488-1.779-4.573-4.127-5.031H28.458c-2.349,0.458-4.127,2.543-4.127,5.031
		v5.935l0,0C14.948,807.651,8.819,818.38,9.013,830.513z M56.311,849.083c0.542-0.363,1.056-0.75,1.557-1.154
		c5.49-4.42,8.701-11.078,8.701-18.18c0-6.073-2.363-11.885-6.546-16.206c-0.444-0.459-0.917-0.918-1.403-1.335
		c-1.015-0.89-1.113-2.418-0.223-3.432c0.89-1.015,2.418-1.112,3.434-0.224c6.115,5.364,9.618,13.094,9.618,21.21
		c0,9.367-4.642,18.11-12.412,23.364c-0.417,0.277-0.89,0.417-1.362,0.417c-0.778,0-1.542-0.375-2.016-1.07
		C54.922,851.349,55.199,849.832,56.311,849.083z M33.893,796.656h18.722c0.958,0,1.738,0.777,1.738,1.738
		c0,0.958-0.779,1.737-1.738,1.737H33.893c-0.959,0-1.738-0.779-1.738-1.737C32.155,797.433,32.933,796.656,33.893,796.656z"/>
</g>
</svg>
